<svg xmlns="http://www.w3.org/2000/svg" width="939" height="266"><path d="M541 50c2.938 2.5 2.938 2.5 5 5l1.563-1.063c3.471-1.335 5.853-.769 9.437.063 3.203 1.818 4.6 3.614 6 7l3.813-.25c3.899.007 3.899.007 6.187 1.938 1.135 2.624 1.236 4.481 1 7.312l3.313.313C581 71 581 71 582.875 72.186c1.618 2.607 1.938 4.766 2.125 7.813-.938 2.375-.938 2.375-2 4l2.938 1.875C589 88 589 88 590 90c.463 6.248.463 6.248-1.5 9.438L587 101l2 3c.438 2.875.438 2.875 0 6l-2.5 2.438L584 115c.03 1.67.03 1.67.063 3.375-.079 4.53-1.375 6.04-4.395 9.246-2.14 1.77-3.904 2.298-6.668 2.379l-.25 1.75c-1.018 3.055-2.153 4.337-4.75 6.25-3.75.25-3.75.25-7 0l-.188 2.125C559.415 145.069 556.2 148.2 552 151c-.364 2.207-.364 2.207-.188 4.625l.083 2.477L552 160l2.105.313c9.738 2.312 18.505 8.313 23.895 16.687 8.36 14.859 19.406 37.027 16.582 54.602-1.264 3.842-2.96 6.529-6.582 8.398h-2l1 2c.398 2.73.75 5.448 1.063 8.188l.275 2.251.26 2.229.234 2.009c.224 3.1.168 6.215.168 9.323h-79l-1-6c-1.574-1.342-1.574-1.342-3.563-1.875L502 257l-1 9h-15l-1-10-4.813.563c-3.302.385-4.987.504-8.187-.563v10h-14c-.027-2.646-.047-5.292-.063-7.938l-.025-2.228c-.017-3.806.127-7.477.627-11.252.613-5.052.347-9.9-.101-14.957-.05-.888-.1-1.776-.15-2.691-.219-2.463-.467-4.601-1.288-6.934-2.871-1.886-2.871-1.886-6-3-1.46-2.262-1.46-2.262-2.375-4.688l-.96-2.449L447 208c-3.717 1.239-4.34 2.547-6.5 5.75l-1.781 2.61L437 219l-1.656 2.453c-1.512 2.491-1.512 2.491-1.668 5.387-.971 4.54-3.528 7.238-6.488 10.722l-1.62 1.96a364.915 364.915 0 01-6.888 8.123c-1.857 2.603-2.324 4.337-2.743 7.48-.5 3.694-1.03 5.464-3.937 7.875l-4-2 3-6h-6l-3 6-5-2c.486-6.314.486-6.314 2.688-9.25C402 248 402 248 404.887 246.969c4.486-2.837 5.448-6.366 7.238-11.219 5.6-14.55 5.6-14.55 9.871-18.68 2.895-2.99 4.352-6.435 6.067-10.195l1.073-2.298c1.857-4.057 3.394-7.988 4.489-12.327 1.254-4.647 3.219-6.662 7.375-9.25 2.61-1.229 5.25-2.14 8-3l2.523-.848c4.614-1.49 8.568-2.54 13.477-2.152v-5l-1.793.105c-4.932.17-8.234.167-12.207-3.105-3-3.414-3-3.414-3-6l-1.938-.938C444 161 444 161 443 160a99.198 99.198 0 01-.313-6.313l-.113-3.488c.512-3.848 1.586-4.692 4.426-7.199.91-1.933.91-1.933 1.438-3.938 1.753-5.071 4.639-7.764 9.062-10.75 5.341-2.002 10.86-2.6 16.5-3.312.2-4.994.2-4.994-1.125-9.75L472 113l2-3c2.563-.25 2.563-.25 5 0 1 1 1 1 1.125 4-.125 3-.125 3-1.125 4a69.603 69.603 0 00-.563 4.063L478 126l3.219.227c14.103 1.215 14.103 1.215 19.363 5.918C503.407 135.842 505 140.333 505 145l3 1c1.343 2.686 1.243 4.877 1.313 7.875l.113 3.18c-.525 3.631-1.694 4.603-4.426 6.945l-1.563 2.625c-1.736 2.87-3.393 4.077-6.625 5-3.64.485-7.14.437-10.812.375v5l2.938-.188c3.945-.016 7.181 1.063 10.851 2.434 2.382.812 4.737 1.307 7.211 1.754l1.031-1.723c4.918-7.834 11.03-13.552 18.969-18.277h2v-3l-1.758-.297c-7.696-1.473-12.957-4.545-17.918-10.664-4.578-7.05-4.742-14.887-4.324-23.039l-2.39-.914c-2.622-1.09-3.896-1.858-5.61-4.086-1.13-3.015-1.056-3.832 0-7l-2.375-.188L492 111a206.38 206.38 0 01-2-5l-3.063-2.5c-2.937-2.5-2.937-2.5-4-4.938.086-3.5 1.227-5.611 3.063-8.562l3-2c-.095-.675-.19-1.35-.29-2.047-.11-.892-.22-1.784-.335-2.703l-.352-2.672c-.026-2.88.337-4.226 1.977-6.578 6-3 6-3 9-3l.25-3.688c.534-4.128 1.564-6.47 4.75-9.312 4.344-1.386 6.953-1.024 11 1l1.688-2.938C519 53 519 53 521.375 51.938c3.46.082 5.666 1.342 8.625 3.062l.875-1.938C533.127 48.934 536.71 49.565 541 50zm-35 97l-1 4 2 1v-5h-1zM403 250l-2 5 3-2-1-3z" fill="#D9F0EE"/><path d="M335 81c2.653 1.024 5.02 2.261 7.492 3.664 2.516 1.34 4.916 2.122 7.633 2.961 6.415 2.455 9.4 7.718 12.875 13.375l1.707 2.477c1.572 3.067 1.628 5.024 1.543 8.46l-.086 3.715L366 120l-.08 2.575c-1.082 34.933-1.082 34.933-8.455 43.132-4.727 4.425-9.967 7.074-16.465 7.48l-2-.187c3.212 3.502 7.171 5.87 11.113 8.477 6.68 5.839 10.407 14.106 14.262 21.96l1.363 2.717C369 212.732 369 212.732 369 215c5.164-3.21 9.695-7.03 14.316-10.977C386 202 386 202 388.488 201.02c4.34-1.762 7.506-5.152 10.989-8.22L402 191l3 1-1 6h7l1-4 8 1c-.223 5.34-1.508 8.977-4.836 13.2-4.298 3.576-9.806 4.592-15.164 5.8l.563 3.938c0 4.56-1.32 6.48-4.5 9.687A164.34 164.34 0 01391 232l-2.215 1.84c-2.225 1.774-4.498 3.467-6.785 5.16l-2.766 2.176c-9.037 6.95-9.037 6.95-15.234 6.824a98.903 98.903 0 01-4-1l.5 3.875c.662 5.13.5 9.809.5 15.125h-77l-4-8a256.203 256.203 0 00-4.563-7.188c-9.493-14.502-9.493-14.502-7.988-22.07 5.376-16.73 17.036-38.651 32.551-47.742 3.652-1.783 7.383-3.328 11.156-4.836 2.7-.891 2.7-.891 3.844-2.164.59-4.203.902-6.646-1.492-10.238A97.204 97.204 0 00308 158l-2-2c-.819 3.44-1.177 5.492 0 8.875 1.345 4.202.863 6.808 0 11.125-2.192 2.192-3.115 2.279-6 3l-2 2c-2.625-.375-2.625-.375-5-1l-1-4-3 4c-4.535-.477-4.535-.477-6.5-2.688-.747-3.455.757-5.363 2.5-8.312h-2l-.375 1.75c-.631 2.273-1.514 4.175-2.625 6.25-2.375.125-2.375.125-5 0l-2-2c.375-2.5.375-2.5 1-5v-2l-2.313.688c-2.687.312-2.687.312-4.406-.875C266 166 266 166 266.145 163.738l.668-2.425.644-2.45L268 157l-2.375.625L263 158l-2-2c.063-2.438.063-2.438 1-5l2.25-1.188c3.177-2.093 3.587-3.329 5.063-6.75 2.135-4.636 4.039-6.503 8.722-8.44A80.542 80.542 0 01284 133c.113-5.083.113-5.083-1-10-.985-8.699 2.063-17.801 7.047-24.926L292 96h2l.816-1.813c3.458-6.39 9.753-9.286 16.391-11.511 4.049-.98 7.642-.874 11.793-.676 3.763-1.881 7.903-1.518 12-1zm-59 77l1 2z" fill="#F1F2F2"/><path d="M541 50c2.938 2.5 2.938 2.5 5 5l1.563-1.063c3.471-1.335 5.853-.769 9.437.063 3.203 1.818 4.6 3.614 6 7l3.813-.25c3.899.007 3.899.007 6.187 1.938 1.135 2.624 1.236 4.481 1 7.312l3.313.313C581 71 581 71 582.875 72.186c1.618 2.607 1.938 4.766 2.125 7.813-.938 2.375-.938 2.375-2 4l2.938 1.875C589 88 589 88 590 90c.463 6.248.463 6.248-1.5 9.438L587 101l2 3c.438 2.875.438 2.875 0 6l-2.5 2.438L584 115l.063 3.375c-.079 4.53-1.375 6.04-4.395 9.246-2.14 1.77-3.904 2.298-6.668 2.379l-.25 1.75c-1.018 3.055-2.153 4.337-4.75 6.25-3.75.25-3.75.25-7 0l-.188 2.125C559.415 145.069 556.2 148.2 552 151c-.364 2.207-.364 2.207-.188 4.625l.083 2.477L552 160l2.137.309c3.274.79 5.749 2.096 8.676 3.754l2.957 1.66L568 167l-2 1c-2.164-.777-2.164-.777-4.625-1.938l-2.477-1.152L557 164l.438 2.816.562 3.746.563 3.692c.423 3.622.512 7.103.437 10.746h-3l1-1c-.16-7.454-1.347-14.746-3-22l-3-1-.146 2.34c-.579 8.4-1.63 16.655-2.917 24.973l-.564 3.724c-.453 2.988-.911 5.976-1.373 8.963h-1c-.202-6.945.587-13.62 1.5-20.5l.434-3.36c.35-2.714.706-5.427 1.066-8.14l-2.777 1.473c-3.798 1.8-6.066 2.056-10.223 1.527-2.938-1.625-2.938-1.625-5-4-.313-3.25-.313-3.25 0-6-3.607 2.404-3.855 3.947-5 8l-1-3 1-2-2-1c3.75-3 3.75-3 6-3v-3l-1.758-.297c-7.696-1.473-12.957-4.545-17.918-10.664-4.578-7.05-4.742-14.887-4.324-23.039l-2.39-.914c-2.622-1.09-3.896-1.858-5.61-4.086-1.13-3.015-1.056-3.832 0-7l-2.375-.188L492 111a206.38 206.38 0 01-2-5l-3.063-2.5c-2.937-2.5-2.937-2.5-4-4.938.086-3.5 1.227-5.611 3.063-8.562l3-2c-.095-.675-.19-1.35-.29-2.047-.11-.892-.22-1.784-.335-2.703l-.352-2.672c-.026-2.88.337-4.226 1.977-6.578 6-3 6-3 9-3l.25-3.688c.534-4.128 1.564-6.47 4.75-9.312 4.344-1.386 6.953-1.024 11 1l1.688-2.938C519 53 519 53 521.375 51.938c3.46.082 5.666 1.342 8.625 3.062l.875-1.938C533.127 48.934 536.71 49.565 541 50z" fill="#13171F"/><path d="M335 81c2.653 1.024 5.02 2.261 7.492 3.664 2.516 1.34 4.916 2.122 7.633 2.961 6.415 2.455 9.4 7.718 12.875 13.375l1.707 2.477c1.572 3.067 1.628 5.024 1.543 8.46l-.086 3.715L366 120l-.08 2.575c-1.082 34.933-1.082 34.933-8.455 43.132-4.727 4.425-9.967 7.074-16.465 7.48l-2-.187c2.079 2.18 4.219 3.964 6.688 5.688l1.886 1.324L349 181l-2 1-2-1 1 7c-2.96-3.364-3.923-6.692-5-11h-2l.367 1.984c.356 1.936.707 3.872 1.055 5.809.376 2.088.761 4.174 1.156 6.258 1.161 6.393 1.68 12.454 1.422 18.949h-1v-6h-2l-.367-3.902-.508-5.036-.238-2.576-.254-2.45-.222-2.27L338 186l-2-1v2c-3.269 1.634-6.469 1.527-10 1-3.366-1.224-6.257-2.683-9-5-1.063-3.313-1.063-3.313-1-6l-3 1c-.912 7.358-1.115 14.59-1 22h-2v-21l-5.875 3.063c-3.305 1.722-3.305 1.722-6.125 2.937l-2-1c5.112-3.484 10.197-6.043 15.996-8.203 1.969-.63 1.969-.63 3.004-1.797.59-4.203.902-6.646-1.492-10.238A97.204 97.204 0 00308 158l-2-2c-.819 3.44-1.177 5.492 0 8.875 1.345 4.202.863 6.808 0 11.125-2.192 2.192-3.115 2.279-6 3l-2 2c-2.625-.375-2.625-.375-5-1l-1-4-3 4c-4.535-.477-4.535-.477-6.5-2.688-.747-3.455.757-5.363 2.5-8.312h-2l-.375 1.75c-.631 2.273-1.514 4.175-2.625 6.25-2.375.125-2.375.125-5 0l-2-2c.375-2.5.375-2.5 1-5v-2l-2.313.688c-2.687.312-2.687.312-4.406-.875C266 166 266 166 266.145 163.738l.668-2.425.644-2.45L268 157l-2.375.625L263 158l-2-2c.063-2.438.063-2.438 1-5l2.25-1.188c3.177-2.093 3.587-3.329 5.063-6.75 2.135-4.636 4.039-6.503 8.722-8.44A80.542 80.542 0 01284 133c.113-5.083.113-5.083-1-10-.985-8.699 2.063-17.801 7.047-24.926L292 96h2l.816-1.813c3.458-6.39 9.753-9.286 16.391-11.511 4.049-.98 7.642-.874 11.793-.676 3.763-1.881 7.903-1.518 12-1zm-59 77l1 2z" fill="#734C41"/><path d="M551 161l4 1c.505 2.728 1.004 5.457 1.5 8.188l.434 2.33c.699 3.878 1.25 7.523 1.066 11.482v1l-.184-2.781c-.44-6.438-.921-12.828-1.816-19.219 2.015.62 4.01 1.302 6 2l2.156.742c11.661 4.513 15.868 14.346 20.696 25.172 13.098 30.454 13.098 30.454 9.023 42.836-1.744 3.024-2.797 4.661-5.875 6.25h-2l1 2c.398 2.73.75 5.448 1.063 8.188l.275 2.251.26 2.229.234 2.009c.224 3.1.168 6.215.168 9.323h-45v-13h4l1-3c3.563-1.188 3.563-1.188 7-2l-8 1-.332-2.563A298.739 298.739 0 00546 236l-.414-2.574c-.488-2.437-.488-2.437-2.586-5.426-2.847-.803-5.452-1.123-8.406-1.258C532 226 532 226 530.356 223.51c-1.672-4.327-1.738-7.821-1.649-12.408l.013-2.53c.017-2.65.054-5.298.093-7.947.015-1.803.028-3.607.04-5.41.03-4.406.09-8.81.147-13.215l-1 34c-2.605-2.605-3.568-5.567-4.875-8.938l-.813-2.032c-1.588-4.009-2.926-8.03-4.187-12.155-1.697-4.866-3.99-6.83-8.516-9.168L508 183c1.652-7.434 4.827-12.443 11-17 3.5-1 3.5-1 6-1v3l.813-2.438L527 163l3-1 .813 3.375c.845 3.843.845 3.843 4.187 5.625 5.98.575 8.072-.46 14-3l-3 28 1.375-10.188c1.124-8.285 2.3-16.556 3.625-24.812z" fill="#F4F5F5"/><path d="M529 170h1l-.013 1.858c-.045 6.391-.075 12.783-.097 19.175-.01 2.384-.024 4.768-.04 7.152-.025 3.43-.036 6.861-.045 10.292l-.032 3.22c0 5.168.134 9.473 2.227 14.303l3.188-.125c5.915.194 5.915.194 8.812 2.125 1.359 2.57 2.22 5.205 3 8l.532 1.833c.512 2.37.566 4.494.53 6.917l-.027 2.422L548 249l2.323-.658c3.473-.979 6.95-1.942 10.427-2.905l3.656-1.037 3.516-.966 3.237-.905c2.762-.514 4.237-.477 6.841.471l-2.646.703c-3.232.862-6.461 1.73-9.69 2.605-1.398.377-2.798.752-4.198 1.123-2.01.534-4.018 1.078-6.025 1.624l-3.665.984c-2.91.645-2.91.645-3.776 2.961h-4v13h-34l-1-6c-1.574-1.342-1.574-1.342-3.563-1.875L502 257l-1 9h-15l-1-10-4.813.563c-3.302.385-4.987.504-8.187-.563v10h-14c-.027-2.646-.047-5.292-.063-7.938l-.025-2.228c-.017-3.808.132-7.466.65-11.24.631-5.144.106-10.03-.5-15.156l-.302-2.768A865.044 865.044 0 00457 220l-5-2c2.979-.993 4.592-1.055 7.668-.879l2.705.147 2.815.17 2.85.158c2.32.13 4.641.264 6.962.404l-.563-2.938L474 212l1-1h9v-18h-9v-1c3.646-.029 7.292-.047 10.938-.063l3.154-.025 2.998-.01 2.777-.016C497 192 497 192 498 193c-.09 2.024-.246 4.045-.438 6.063l-.308 3.347L497 205l-2-4h-2l1-4-8-3-1 17h10v-5h1v5h11l-1-5 3.313-.75c3.907-1.324 4.757-1.767 6.687-5.25.222-2.726.222-2.726-.188-5.563l-.292-2.878c-.398-2.786-.398-2.786-2.52-5.559 2.611.98 3.769 1.545 5.055 4.074l.82 2.613c1.633 4.911 3.434 9.706 5.375 14.5l1.479 3.665L527 214l.076-2.747c.096-3.422.195-6.844.296-10.266.043-1.47.085-2.94.125-4.41.246-8.885.638-17.726 1.503-26.577z" fill="#4D9FCD"/><path d="M313 177h3c5.133 18.623 9.173 36.668 10 56l-1.438-1.938c-1.4-1.945-1.4-1.945-2.562-3.062l2 6h-4l1 3h4v29h-41l-4-8a256.203 256.203 0 00-4.563-7.188c-9.493-14.502-9.493-14.502-7.988-22.07 4.803-14.948 14.657-33.17 26.551-43.742a124.709 124.709 0 017-3l10-4-1 22c1.247-1.018 1.247-1.018 1.063-3.152l-.063-2.786c-.05-5.386.113-10.738 1-16.062l1-1z" fill="#F1F2F2"/><path d="M335 81c2.653 1.024 5.02 2.261 7.492 3.664 2.516 1.34 4.916 2.122 7.633 2.961 6.415 2.455 9.4 7.718 12.875 13.375l1.707 2.477c1.572 3.067 1.628 5.024 1.543 8.46l-.078 3.66c-.054 1.468-.112 2.936-.172 4.403l-.111 2.8c-.262 6.402-.562 12.801-.889 19.2h-1l-1-14-8-1 1-3h6c.336-6.778.336-6.778-2-13-6.027-5.634-9.935-7.375-18.125-7.313l-2.307.018c-9.534.204-18.515 2.462-25.568 9.295-1.176 2.336-1.176 2.336-2 4.813-.855 2.351-.855 2.351-2 4.187-2.29.675-4.302.687-6.684.723-4.178.5-6.731 3.11-9.316 6.277-1.305 2.323-2.137 4.46-3 7h-3l-1-2c.113 2.409.113 2.409 1 5 2.461 1.844 2.461 1.844 5 3l-.438-3.5c-.008-4.923 2.163-7.37 5.493-10.8 3.44-3.006 6.356-4.7 10.945-4.7.027 1.958.046 3.917.063 5.875l.035 3.305C309 135 309 135 308 137l-1.688-.938c-2.567-1.179-4.478-1.92-7.312-2.062-2.477 1.393-2.477 1.393-4 4-.592 4.068-.373 6.27 1.5 9.938 3.612 2.98 5.91 2.444 10.5 2.062-.504 3.022-1.003 6.013-1.688 9-.53 3.03-.53 3.03.688 5.875 1.345 4.202.863 6.808 0 11.125-2.192 2.192-3.115 2.279-6 3l-2 2c-2.625-.375-2.625-.375-5-1l-1-4-3 4c-4.535-.477-4.535-.477-6.5-2.688-.747-3.455.757-5.363 2.5-8.312h-2l-.375 1.75c-.631 2.273-1.514 4.175-2.625 6.25-2.375.125-2.375.125-5 0l-2-2c.375-2.5.375-2.5 1-5v-2l-2.313.688c-2.687.312-2.687.312-4.406-.875C266 166 266 166 266.145 163.738l.668-2.425.644-2.45L268 157l-2.375.625L263 158l-2-2c.063-2.438.063-2.438 1-5l2.25-1.188c3.177-2.093 3.587-3.329 5.063-6.75 2.135-4.636 4.039-6.503 8.722-8.44A80.542 80.542 0 01284 133c.113-5.083.113-5.083-1-10-.985-8.699 2.063-17.801 7.047-24.926L292 96h2l.816-1.813c3.458-6.39 9.753-9.286 16.391-11.511 4.049-.98 7.642-.874 11.793-.676 3.763-1.881 7.903-1.518 12-1zm-59 77l1 2z" fill="#11161D"/><path d="M520 97c5.357.344 10.707.324 16-.625 3-.375 3-.375 4.797.594 2.92 1.367 5.246 1.226 8.453 1.156l3.266-.055L555 98c4.847 8.807 4.407 17.265 4 27h2l.938-1.938C563 121 563 121 564 120c3.438.25 3.438.25 7 1 2.684 4.026 2.795 7.27 2 12-2.063 3.063-2.063 3.063-5 5-3.813.313-3.813.313-7 0l-.188 2.125C559.415 145.069 556.2 148.2 552 151c-.364 2.207-.364 2.207-.188 4.625l.083 2.477L552 160l2.137.309c3.274.79 5.749 2.096 8.676 3.754l2.957 1.66L568 167l-2 1c-2.164-.777-2.164-.777-4.625-1.938l-2.477-1.152L557 164l.438 2.816.562 3.746.563 3.692c.423 3.622.512 7.103.437 10.746h-3l1-1c-.16-7.454-1.347-14.746-3-22l-3-1-.146 2.34c-.579 8.4-1.63 16.655-2.917 24.973l-.564 3.724c-.453 2.988-.911 5.976-1.373 8.963h-1c-.202-6.945.587-13.62 1.5-20.5l.434-3.36c.35-2.714.706-5.427 1.066-8.14l-2.777 1.473c-3.798 1.8-6.066 2.056-10.223 1.527-2.938-1.625-2.938-1.625-5-4-.313-3.25-.313-3.25 0-6-3.607 2.404-3.855 3.947-5 8l-1-3 1-2-2-1c3.75-3 3.75-3 6-3v-3l-1.758-.297C518.68 156.064 512.96 152.186 508 145c-2.096-4.205-2.278-8.035-2.23-12.645v-2.207c.004-1.538.012-3.075.024-4.612.018-2.33.02-4.66.02-6.991l.018-4.502.003-2.081c.046-4.753.28-9.296 1.165-13.962 5.125-3.417 7.484-2.977 13-1z" fill="#704B41"/><path d="M473.781 177.684c2.148.003 4.295-.02 6.444-.045 8.376-.038 15.194.57 22.775 4.361l1 3 2.125-.75c4.037-.351 5.748 1.334 8.875 3.75 2.186 2.186 1.819 6.328 2.055 9.262-.055 2.738-.055 2.738-1.618 5.8-2.73 2.17-5.069 3.096-8.437 3.938v4h-22l-.063-7.375-.027-2.318c-.021-5.085-.021-5.085 1.09-7.307 3.375.313 3.375.313 7 1l2 3h-2v3l3-1 1-7h-13v18l-9 1v6c-3.27.029-6.542.047-9.813.063l-2.814.025-2.705.01-2.491.016C455 218 455 218 452 217c-1.133-2.328-1.133-2.328-2.125-5.25l-1.008-2.89c-1.606-5.297-2.13-10.336-2.242-15.86l-.113-2.117c-.064-3.74.346-5.68 2.511-8.758 7.36-5.254 16.065-4.467 24.758-4.44z" fill="#D6EEEC"/><path d="M529 170h1l-.013 1.858c-.045 6.391-.075 12.783-.097 19.175-.01 2.384-.024 4.768-.04 7.152-.025 3.43-.036 6.861-.045 10.292l-.032 3.22c0 5.168.134 9.473 2.227 14.303l3.188-.125c5.915.194 5.915.194 8.812 2.125 3.057 5.133 3.313 10.165 3 16h-2l-1 2c-2.882 1.003-5.591 1.135-8.625 1.125l-2.352.008C531 247 531 247 529 246v-2l-3-1c-3.128-5.027-3.128-5.027-2.688-8.375L524 233l8-1-8-16c-3.187.03-3.187.03-6.438.063-11.53.05-23.047-.545-34.562-1.063l1 5 3-1c1.568-.093 3.14-.13 4.71-.133l2.774-.004 2.891.012 2.867-.012 2.781.004 2.53.004c2.564.135 4.944.567 7.447 1.129l-2 5h7l-1 7c-2.48.027-4.958.047-7.438.063l-2.142.025c-1.807.009-3.614-.036-5.42-.088l-1-1a103.535 103.535 0 00-5.063-.563l-2.785-.253L491 230l.625 1.813C492 234 492 234 490 237c-3.337-.247-4.225-1.23-6.625-3.688-2.28-2.896-3.437-5.73-4.375-9.312h-5v13c-2-2-2-2-2.195-4.82l.07-3.305.055-3.32L472 223l-2.336.035-3.039.028-3.023.035C461 223 461 223 459 222c1.125 16.284 1.125 16.284 9 30 4.878 3.068 10.444 2.624 16 2 3.601-2.058 5.685-4.589 8-8l2 5-2.938 1.313c-2.523 1.62-3.001 2.42-3.683 5.402-.232 2.77-.37 5.505-.379 8.285h-1l-1-10-4.813.563c-3.302.385-4.987.504-8.187-.563v10h-14c-.027-2.646-.047-5.292-.063-7.938l-.025-2.228c-.017-3.808.132-7.466.65-11.24.631-5.144.106-10.03-.5-15.156l-.302-2.768A865.044 865.044 0 00457 220l-5-2c2.979-.993 4.592-1.055 7.668-.879l2.705.147 2.815.17 2.85.158c2.32.13 4.641.264 6.962.404l-.563-2.938L474 212l1-1h9v-18h-9v-1c3.646-.029 7.292-.047 10.938-.063l3.154-.025 2.998-.01 2.777-.016C497 192 497 192 498 193c-.09 2.024-.246 4.045-.438 6.063l-.308 3.347L497 205l-2-4h-2l1-4-8-3-1 17h10v-5h1v5h11l-1-5 3.313-.75c3.907-1.324 4.757-1.767 6.687-5.25.222-2.726.222-2.726-.188-5.563l-.292-2.878c-.398-2.786-.398-2.786-2.52-5.559 2.611.98 3.769 1.545 5.055 4.074l.82 2.613c1.633 4.911 3.434 9.706 5.375 14.5l1.479 3.665L527 214l.076-2.747c.096-3.422.195-6.844.296-10.266.043-1.47.085-2.94.125-4.41.246-8.885.638-17.726 1.503-26.577z" fill="#4D9ED7"/><path d="M317 183c2.542.47 4.015 1.01 6.125 2.563 4.226 2.112 8.234 1.68 12.875 1.437v-2l3 1c.956 3.998 1.104 7.708 1.063 11.813l-.028 3.519L340 204h2c1.623 2.9 2.32 5.246 2.633 8.547l.254 2.558.238 2.645.262 2.691c.211 2.186.415 4.372.613 6.559.507-1.894 1.006-3.79 1.5-5.688l.844-3.199c.604-2.868.935-5.202.656-8.113-1.898-2.79-1.898-2.79-4-5l2-4 .813 2.813c.892 3.145.892 3.145 2.793 4.64L352 210a68.502 68.502 0 01-1.688 8.688l-.568 2.357c-.864 3.559-1.778 7.065-2.85 10.568-1.616 6.46-1.37 13.262-1.519 19.887l-.117 4.227c-.094 3.424-.177 6.848-.258 10.273h-20l-1-28-4-1v-3h4l-.91-1.68-1.152-2.195-1.16-2.18L320 226l1-2c2.222 2.222 2.926 4.085 4 7-1.017-13.86-3.262-27.116-6.46-40.638-.56-2.446-1.059-4.9-1.54-7.362z" fill="#21CF9C"/><path d="M497 131c3.86 1.464 5.267 3.286 7 7 .688 3.813.688 3.813 1 7l3 1c1.343 2.686 1.243 4.877 1.313 7.875l.113 3.18c-.525 3.631-1.694 4.603-4.426 6.945l-1.563 2.625c-1.736 2.87-3.393 4.077-6.625 5-3.64.485-7.14.437-10.812.375v5l2.938-.188c4.696-.019 8.694 1.62 13.062 3.188 2.714.949 2.714.949 5 1 1.835-1.334 1.835-1.334 3-3l-.75 1.75L509 182c1.854 2.271 1.854 2.271 4 4l-6.055-.879c-2.026-.29-2.026-.29-3.945.879v-4c-10.341-3.85-21.11-3.707-32-4v10h-1v-10c-2.377.257-4.75.53-7.125.813l-2.016.212c-4.495.551-7.98 1.634-11.859 3.975-4.124 8.247-.515 21.817 2 30 .342 1.331.678 2.664 1 4-3.092-2.53-3.91-5.225-5-9-3.717 1.239-4.34 2.547-6.5 5.75l-1.781 2.61L437 219l-1.656 2.453c-1.512 2.491-1.512 2.491-1.668 5.387-.971 4.54-3.528 7.238-6.488 10.722l-1.62 1.96a364.915 364.915 0 01-6.888 8.123c-1.857 2.603-2.324 4.337-2.743 7.48-.5 3.694-1.03 5.464-3.937 7.875l-4-2 3-6h-6l-3 6-5-2c.486-6.314.486-6.314 2.688-9.25C402 248 402 248 404.887 246.969c4.486-2.837 5.448-6.366 7.238-11.219 5.6-14.55 5.6-14.55 9.871-18.68 2.895-2.99 4.352-6.435 6.067-10.195l1.073-2.298c1.857-4.057 3.394-7.988 4.489-12.327 1.254-4.647 3.219-6.662 7.375-9.25 2.61-1.229 5.25-2.14 8-3l2.523-.848c4.614-1.49 8.568-2.54 13.477-2.152v-5l-1.793.105c-4.967.17-8.114.064-12.207-3.105 2.44 0 4.877.019 7.316.048 4.83.053 9.66.088 14.49.117 2.086.015 4.172.035 6.258.061 3.009.037 6.017.054 9.026.067l2.825.047c3.604 0 6.348-.013 9.666-1.485 2.013-2.632 1.964-4.542 2.028-7.835l.098-3.526.043-3.682.09-3.716c.07-3.032.123-6.063.16-9.096l-5-1 2-1c-.613-2.962-1.254-4.38-3-7zm9 16l-1 4 2 1v-5h-1zM403 250l-2 5 3-2-1-3z" fill="#CFE8E8"/><path d="M528 162h2l.813 3.375c.845 3.843.845 3.843 4.187 5.625 4.053.39 7.06.146 10.734-1.52L549 168l-.275 2.12c-.416 3.23-.82 6.461-1.225 9.693l-.434 3.333c-.76 6.134-1.179 12.088-1.083 18.266.032 4.862-.372 9.704-.715 14.55-.41 4.144-.41 4.144.732 8.038l3.613-1.094 4.7-1.406 2.38-.723 2.295-.683 2.11-.635C563 219 563 219 566 219l-.567-1.772c-.842-2.656-1.669-5.317-2.496-7.978l-.892-2.79-.83-2.694-.778-2.476c-.471-2.469-.235-3.932.563-6.29l.595 1.988c.895 2.966 1.806 5.926 2.717 8.887l.936 3.129.928 2.988.84 2.761c.885 2.57.885 2.57 3.984 4.247a4540.98 4540.98 0 01-11.813 3.5l-3.392 1.012-3.252.957-3 .888C547 226 547 226 544 226l-1 2a160.286 160.286 0 01-5.313-.625l-2.988-.352C532 226 532 226 530.35 223.493c-1.668-4.318-1.73-7.814-1.642-12.391l.013-2.53c.017-2.65.054-5.298.092-7.947.016-1.803.03-3.607.042-5.41.03-4.406.089-8.81.146-13.215l-1 34c-2.605-2.605-3.568-5.567-4.875-8.938l-.813-2.032c-1.588-4.009-2.926-8.03-4.187-12.155-1.697-4.866-3.99-6.83-8.516-9.168L508 183c1.652-7.434 4.827-12.443 11-17 3.5-1 3.5-1 6-1v3l.937-2.438C527 163 527 163 528 162z" fill="#E4D641"/><path d="M338 176c3 1 3 1 4.168 2.848l1.02 2.214 1.042 2.223L345 185v-4c3.313.625 3.313.625 7 2 1.813 2.875 1.813 2.875 3 6l1.188 2.375L357 193h-3l1 3h-2l.6 2.209c2.423 9.588 3.317 19.015 4.025 28.853.125 1.645.252 3.289.378 4.933.86 11.325 1.579 22.654 1.997 34.005h-15c-.599-16.233-.744-30.92 4.042-46.635l.84-2.78c.263-.793.524-1.586.794-2.404.409-2.753-.227-3.849-1.676-6.181l-1.625-2.75L346 203c1.074 2.915 1.778 4.778 4 7-.37 7.52-2.208 14.709-4 22h-1l-.212-2.62c-1.274-15.42-2.576-30.62-6.018-45.74C338 180 338 180 338 176z" fill="#F4F6F6"/><path d="M388 116h4v10h7l1-3c5.371-4 5.371-4 8-4l2-3 4 1v2l9-3 2 2c-.375 2.125-.375 2.125-1 4h-8l-1 4 3 1 2 2 3-2c2.188.375 2.188.375 4 1-.125 1.875-.125 1.875-1 4-3.063 1.25-3.063 1.25-6 2h8l1 5-9-1c1.713 3.776 1.713 3.776 3.5 5.875 1.84 2.605 2.697 5.049 3.5 8.125l-1 2h-4l.473 2.117.59 2.758.597 2.742C424 164 424 164 423 166h-5c-1.35-4.05-.62-6.792 0-11l-2.313.563C413 156 413 156 410 155v7l-4 2-1-3-3.75.938C397 163 397 163 394.937 163.5c-2.693.695-5.305 1.603-7.937 2.5l-1-5 5-1 1-6-2.25 2c-2.75 2-2.75 2-6.75 2l-1-3c1.18-2.156 1.18-2.156 2.875-4.5 1.857-2.592 3.11-4.454 4.125-7.5l-7-1 1-4h4l-3-10 4-2 2 1-.691-1.898-.872-2.477-.878-2.46C387 118 387 118 388 116zm24 4l1 2 1-2h-2zm-6 4v2h2v-2h-2zm-13 6c-1.385 1.163-1.385 1.163-1.188 4.375-.117 3.722-.117 3.722 2.188 6.625l1-2v5l-2-1c-.677 3.403-.677 3.403-1 7 1.785 2.2 1.785 2.2 4.139 2.243l2.615-.013 2.838-.005 2.97-.037 2.983-.002c4.567.395 4.567.395 8.455-1.186.25-3.305.185-6.624.188-9.938l.037-2.826.005-2.7.013-2.489c-.056-2.272-.056-2.272-2.243-4.047-7.332-1.418-13.876-1.102-21 1zm-5 19v2h2v-2h-2zm12 6l1 2 1-2h-2z" fill="#D9F6FA"/><path d="M471 178c3.312-.088 6.624-.14 9.938-.188l2.806-.076c7.06-.074 12.925 1.099 19.256 4.264l1 3 2.125-.75c4.037-.351 5.748 1.334 8.875 3.75 2.186 2.186 1.819 6.328 2.055 9.262-.055 2.738-.055 2.738-1.617 5.8-2.73 2.17-5.07 3.096-8.438 3.938v4h-22l-.063-7.375-.027-2.318c-.021-5.085-.021-5.085 1.09-7.307 3.375.313 3.375.313 7 1l2 3h-2v3l3-1 1-7-2.171-.06c-3.235-.095-6.47-.205-9.704-.315-1.128-.03-2.256-.062-3.418-.094l-3.262-.117-3.015-.095C473 192 473 192 471 190c-.195-2.82-.195-2.82-.125-6.125l.055-3.32L471 178z" fill="#AEDDD5"/><path d="M472.348 138.65a351.12 351.12 0 004.783-.082c2.306-.055 4.61-.077 6.916-.091l2.14-.07c3.877.017 6.283.6 9.248 3 3.021 3.054 3.495 3.66 3.815 7.906-.269 3.964-.782 5.623-3.25 8.687-5.684 4.249-11.952 3.486-18.72 3.446-2.208-.008-4.414.02-6.622.052-1.416.002-2.832.001-4.248-.002l-3.87.006c-4.145-.588-6.302-1.897-9.54-4.502-1.927-3.1-2.006-4.832-1.875-8.5.954-3.817 2.157-5.7 4.875-8.5 4.568-2.284 11.275-1.312 16.348-1.35z" fill="#85CDBF"/><path d="M592 233l1 3c-4.75 4-4.75 4-7 4l1 2c.398 2.73.75 5.448 1.063 8.188l.275 2.251.26 2.229.234 2.009c.224 3.1.168 6.215.168 9.323h-45v-13h4l1-3c2.453-.983 2.453-.983 5.68-1.824l3.504-.928 3.691-.935 3.668-.971C574.521 243 574.521 243 578 243v-2l2.3-.734 3.013-1.016 2.988-.984c2.914-1.367 4.033-2.56 5.699-5.266z" fill="#E2E3E3"/><path d="M578 243l-2.646.703c-3.232.862-6.461 1.73-9.69 2.605-1.398.377-2.798.752-4.198 1.123-2.01.534-4.018 1.078-6.025 1.624l-3.665.984c-2.91.645-2.91.645-3.776 2.961h-4v13h-34l-1-6c-1.574-1.342-1.574-1.342-3.563-1.875L502 257l-1 9h-14c-.61-10.245-.61-10.245 1.748-13.164 5.1-2.88 10.028-2.215 15.772-2.008l3.677.085c3.873.093 7.744.215 11.616.337 2.626.068 5.253.135 7.88.2 6.437.161 12.872.347 19.307.55l-1-4 3.875-.188c6.183-.577 11.968-2.345 17.878-4.172l2.27-.68 2.03-.63c2.263-.383 3.779-.023 5.947.67z" fill="#4C5752"/><path d="M312 84c7.385-.37 7.385-.37 10.5 1.5L324 87l2-2c3-1 3-1 5.48.145l2.707 1.668 2.731 1.644L339 90v2l3 1c1.188 3.063 1.188 3.063 2 6l5 1 1-3 8-1c3 5.75 3 5.75 3 8l3 1c2.647 3.532 2.17 7.41 1.977 11.61l-.076 2.202c-.082 2.313-.179 4.625-.276 6.938a3781.48 3781.48 0 00-.172 4.715c-.14 3.845-.293 7.69-.453 11.535h-1l-1-14-8-1 1-3h6c.336-6.778.336-6.778-2-13-5.365-5.015-8.766-7.144-16.063-7.25-6.238-.365-10.34-2.087-15.597-5.375C321.957 94.624 313.205 95.25 306 96c-3.15.855-5.988 1.889-8.96 3.223L295 100l-2-1c2.297-5.294 6.723-9.543 12.012-11.895C307.35 86.424 309.56 86 312 86v-2z" fill="#16191F"/><path d="M322.313 104.027L324 105h-2l-1 3-3.313 2.125c-3.293 2.169-4.297 3.917-5.562 7.625-.91 2.379-.91 2.379-2.125 4.25-2.292.677-4.3.687-6.684.723-4.178.5-6.731 3.11-9.316 6.277-1.305 2.323-2.137 4.46-3 7h-3l-1-2c.113 2.409.113 2.409 1 5 2.461 1.844 2.461 1.844 5 3l-.438-3.5c-.008-4.923 2.163-7.37 5.493-10.8 3.44-3.006 6.356-4.7 10.945-4.7.027 1.958.046 3.917.063 5.875l.035 3.305C309 135 309 135 308 137l-1.688-.938c-2.567-1.179-4.478-1.92-7.312-2.062-2.818 2.035-3.833 3.388-4.75 6.75L294 143c-5.485-.488-5.485-.488-7.652-2.645-1.72-3.007-1.89-5.344-2.098-8.792l-.234-3.372c-.035-7.148 2.148-10.23 6.984-15.191 7.607-7.607 20.73-13.674 31.313-8.973z" fill="#14181E"/><path d="M384.855 107.855l3.135-.02 3.412-.003 3.48-.01c2.433-.005 4.867-.007 7.3-.007 3.736-.002 7.471-.02 11.207-.04a8373.8 8373.8 0 017.076-.005l3.406-.022 3.144.01 2.777-.005C432 108 432 108 434 110c.335 2.473.335 2.473.45 5.633l.133 3.589.104 3.903.119 3.997c.265 10.216.166 20.414-.119 30.628l-.05 2.133a688.463 688.463 0 01-.188 5.976l-.114 3.453C434 172 434 172 432 174c-2.201.254-2.201.254-4.969.259l-3.135.019-3.396-.012-3.475.005c-2.427.002-4.855-.002-7.283-.01-3.727-.011-7.453 0-11.18.012-2.354 0-4.708-.003-7.062-.007l-3.396.012-3.135-.02c-.914 0-1.827-.002-2.768-.004C380 174 380 174 378 172c-.278-1.83-.278-1.83-.319-4.076l-.06-2.551-.035-2.771-.059-2.865c-.06-3.037-.106-6.075-.152-9.112-.038-2.01-.077-4.018-.117-6.027-.106-5.533-.188-11.065-.258-16.598l-.055-3.944c-.01-1.058-.018-2.117-.027-3.208l-.023-2.61c.305-6.508 1.08-10.355 7.96-10.383zM380 112c-.446 2.44-.446 2.44-.356 5.32l-.01 3.368.038 3.652.006 3.736c.008 3.282.03 6.564.058 9.846.023 3.335.025 6.67.03 10.006l.03 7.6.014 3.645.029 3.378.02 2.976c.04 2.608.04 2.608 1.141 5.473h50c1.016-3.049 1.138-5.15 1.161-8.342l.03-3.307.012-3.57.017-3.665c.01-2.558.016-5.117.02-7.676.01-3.924.041-7.848.072-11.772.007-2.483.012-4.966.016-7.45l.038-3.57-.01-3.306.011-2.913c-.19-2.453-.19-2.453-1.607-4.24-2.24-1.513-3.582-1.563-6.276-1.561l-2.76-.02-2.974.029-3.06-.002c-2.135.003-4.27.012-6.405.029-3.272.023-6.544.02-9.816.014-2.073.005-4.146.012-6.219.021l-2.974-.003-2.76.03-2.43.013c-2.39.141-2.39.141-5.086 2.261z" fill="#DDF9FD"/><path d="M483 215h41c8 15 8 15 8 17l-8 2c.405 5.672 2.37 7.904 6 12v2c1.918-.03 1.918-.03 3.875-.063 3.875-.062 3.875-.062 6.125 1.063v2h-29l-1-4h11l-1-3-10-1 4-1v-2c3-2 3-2 5.688-1.625L522 239l-1-4h-10v-1h9v-2h-3l1-7h-7l2-5h-29l-1-5z" fill="#4599DA"/><path d="M470 178v9l-4 2c-1.096 2.823-1.096 2.823-1 6 .969 1.685 1.97 3.352 3 5 .25 3.25.25 3.25 0 6-1.728 1.728-3.925 1.132-6.225 1.137l-2.087-.012-2.053.012c-3.354-.007-6.429-.099-9.635-1.137-1.03-4.319-1.285-8.579-1.375-13l-.113-2.117c-.067-3.938.322-5.672 2.781-8.801 6.157-4.735 13.28-4.356 20.707-4.082z" fill="#D3EDEA"/><path d="M459 222l13 1 .25 5.625c.444 5.37 1.103 8.406 4.75 12.375 2.845.948 4.12 1.014 7 .813 3.712-.042 3.712-.042 6.125 1.875C491 246 491 246 490.5 248.5c-1.963 3.271-3.093 4.66-6.5 6.5-5.584.775-10.35.766-15.5-1.625-6.8-6.46-9.157-14.355-9.684-23.598-.003-2.593.082-5.186.184-7.777z" fill="#D7EFEE"/><path d="M527 163h2c.21 17.678-.425 35.334-1 53-2.605-2.605-3.568-5.567-4.875-8.938l-.813-2.032c-1.588-4.009-2.926-8.03-4.187-12.155-1.697-4.866-3.99-6.83-8.516-9.168L508 183c1.652-7.434 4.827-12.443 11-17 3.5-1 3.5-1 6-1v3l2-5z" fill="#D4D6D6"/><path d="M402 191l3 1-1 6h7l1-4 8 1c-.223 5.34-1.508 8.977-4.836 13.2-4.298 3.576-9.806 4.592-15.164 5.8l.563 3.938c.05 3.531-.377 4.82-2.567 7.664A117.837 117.837 0 01391 232l-2-1 1.969-1.723c4.767-4.071 4.767-4.071 7.629-9.433.015-2.093.015-2.093-.598-4.844h-2l1 4c-4.244-3.88-7.11-8.043-10-13-3.26.694-4.79 1.459-7 4l-2-1a412.433 412.433 0 013.688-3.375l2.074-1.898C386 202 386 202 388.418 201.067c4.366-1.804 7.545-5.171 11.059-8.266L402 191z" fill="#714D45"/><path d="M313 163c1.938.688 1.938.688 4 2 .75 2.625.75 2.625 1 5l5 1-1-3c4 1 4 1 5.87 1.515 2.187.498 4.22.69 6.458.801l2.422.127 2.5.12 2.547.13c2.067.106 4.135.207 6.203.307-3.216 1.746-5.32 2.204-9 2 2.079 2.18 4.219 3.964 6.688 5.688l1.886 1.324L349 181l-2 1-2-1 1 7c-2.96-3.364-3.923-6.692-5-11h-2l.367 1.984c.356 1.936.707 3.872 1.055 5.809.376 2.088.761 4.174 1.156 6.258 1.161 6.393 1.68 12.454 1.422 18.949h-1v-6h-2l-.367-3.902-.508-5.036-.238-2.576-.254-2.45-.222-2.27L338 186l-2-1v2c-3.269 1.634-6.469 1.527-10 1-3.366-1.224-6.257-2.683-9-5-1.063-3.313-1.063-3.313-1-6l-3 1c-.912 7.358-1.115 14.59-1 22h-2v-21l-5.875 3.063c-3.305 1.722-3.305 1.722-6.125 2.937l-2-1c5.112-3.484 10.197-6.043 15.996-8.203 1.969-.63 1.969-.63 3.004-1.797.463-5.876.463-5.876-2-11z" fill="#6C4D43"/><path d="M497 131c3.86 1.464 5.267 3.286 7 7 .688 3.813.688 3.813 1 7l3 1c1.343 2.686 1.243 4.877 1.313 7.875l.113 3.18c-.525 3.631-1.694 4.603-4.426 6.945l-1.563 2.625c-1.736 2.87-3.393 4.077-6.625 5-3.64.485-7.14.437-10.812.375v5l2.938-.188c4.696-.019 8.694 1.62 13.062 3.188 2.714.949 2.714.949 5 1 1.835-1.334 1.835-1.334 3-3l-.75 1.75L509 182c1.854 2.271 1.854 2.271 4 4l-6.055-.879c-2.026-.29-2.026-.29-3.945.879v-4c-10.341-3.85-21.11-3.707-32-4v10h-1v-10c-2.377.257-4.75.53-7.125.813l-2.016.212c-4.495.551-7.98 1.634-11.859 3.975-4.124 8.247-.515 21.817 2 30 .342 1.331.678 2.664 1 4-3.092-2.53-3.91-5.225-5-9l-4 1v-3l-2.375-.313C438 205 438 205 436 202l10 3-.5-3.375c-.728-5.83-1.375-11.999.5-17.625h-5c2.552-2.552 4.53-2.946 8-4l2.406-.793c4.66-1.495 8.638-2.598 13.594-2.207v-5l-1.793.105c-4.967.17-8.114.064-12.207-3.105 2.44 0 4.877.019 7.316.048 4.83.053 9.66.088 14.49.117 2.086.015 4.172.035 6.258.061 3.009.037 6.017.054 9.026.067.932.015 1.865.03 2.825.047 3.604 0 6.348-.013 9.666-1.485 2.013-2.632 1.964-4.542 2.028-7.835l.098-3.526.043-3.682.09-3.716c.07-3.032.123-6.063.16-9.096l-5-1 2-1c-.613-2.962-1.254-4.38-3-7zm9 16l-1 4 2 1v-5h-1z" fill="#1B2F34"/><path d="M529 170h1l-.013 1.858c-.045 6.391-.075 12.783-.097 19.175-.01 2.384-.024 4.768-.04 7.152-.025 3.43-.036 6.861-.045 10.292l-.032 3.22c0 5.168.134 9.473 2.227 14.303l3.188-.125c5.915.194 5.915.194 8.812 2.125 3.057 5.133 3.313 10.165 3 16h-2l-1 2c-2.882 1.003-5.591 1.135-8.625 1.125l-2.352.008C531 247 531 247 529 246v-2l-3-1c-3.128-5.027-3.128-5.027-2.688-8.375L524 233l8-1-9-17 2-1 2 1 .076-2.839c.096-3.534.195-7.067.296-10.6.043-1.52.085-3.038.125-4.557.242-9.032.616-18.006 1.503-27.004z" fill="#704E45"/><path d="M475 216c1.892 2.386 3.024 4.072 4 7-2.958.027-5.917.047-8.875.063l-2.55.025-2.442.01-2.254.016C461 223 461 223 459 222c1.125 16.284 1.125 16.284 9 30 4.878 3.068 10.444 2.624 16 2 3.601-2.058 5.685-4.589 8-8l2 5-2.938 1.313c-2.523 1.62-3.001 2.42-3.683 5.402-.232 2.77-.37 5.505-.379 8.285h-1l-1-10-4.813.563c-3.302.385-4.987.504-8.187-.563v10h-14c-.027-2.646-.047-5.292-.063-7.938l-.025-2.228c-.017-3.808.132-7.466.65-11.24.631-5.144.106-10.03-.5-15.156l-.302-2.768A865.044 865.044 0 00457 220l-5-2c2.979-.993 4.592-1.055 7.668-.879l2.705.147 2.815.17 2.85.158c2.32.13 4.641.264 6.962.404v-2z" fill="#2F4348"/><path d="M513 186c2.585.976 3.764 1.543 5.055 4.04l.82 2.585c2.51 7.528 5.339 14.945 8.125 22.375l-52-1-1 2 1-5h9v-18h-9v-1c3.646-.029 7.292-.047 10.938-.063l3.154-.025 2.998-.01 2.777-.016C497 192 497 192 498 193c-.09 2.024-.246 4.045-.438 6.063l-.308 3.347L497 205l-2-4h-2l1-4-8-3-1 17h10v-5h1v5h11l-1-5 3.313-.75c3.907-1.324 4.757-1.767 6.687-5.25.222-2.726.222-2.726-.188-5.563l-.292-2.878c-.398-2.786-.398-2.786-2.52-5.559z" fill="#2A485B"/><path d="M551 161l4 1c.505 2.728 1.004 5.457 1.5 8.188l.434 2.33c1.987 11.024 1.987 11.024-.934 15.482l-3 2c1.152 2.468 2.048 4.048 4 6-.375 3.625-.375 3.625-1 7h-2l-.313 2.063c-.834 3.566-2.182 6.6-3.687 9.937h-2l-.438 2.375C547 220 547 220 546 222h-2c.555-20.498 3.828-40.771 7-61z" fill="#DDDCDA"/><path d="M467.875 127.867l3.484-.004 3.641.012 3.64-.012a539564849.44 539564849.44 0 016.68.008C488 128 488 128 491 129v3l3-1 .375 2.438L495 136l2 1-1 2-4-2-1 1c-2.22.147-4.444.228-6.668.281l-2.038.056c-2.16.059-4.32.112-6.481.163-2.143.052-4.286.105-6.429.163-1.957.053-3.915.1-5.873.148-3.246.175-6.32.584-9.511 1.189l1-7 3-1 1-3c3.2-1.066 5.514-1.13 8.875-1.133z" fill="#D8F1EE"/><path d="M508 183.938c3.668 1.298 5.48 2.039 8 5.062 1.337 5.046 1.843 9.347-.563 14.063-2.73 2.17-5.069 3.095-8.437 3.937v4h-4l-.402-2.117-.536-2.758-.527-2.742C501.1 201 501.1 201 500 199c-.635-5.122-.79-8.816 2.125-13.188C505 184 505 184 508 183.938z" fill="#87C6BB"/><path d="M472.348 138.65a351.12 351.12 0 004.783-.082c2.306-.055 4.61-.077 6.916-.091l2.14-.07c3.877.017 6.283.6 9.248 3 3.021 3.054 3.495 3.66 3.815 7.906-.269 3.964-.782 5.623-3.25 8.687-5.684 4.249-11.952 3.486-18.72 3.446-2.208-.008-4.414.02-6.622.052-1.416.002-2.832.001-4.248-.002l-3.87.006c-4.145-.588-6.302-1.897-9.54-4.502-1.927-3.1-2.006-4.832-1.875-8.5.954-3.817 2.157-5.7 4.875-8.5 4.568-2.284 11.275-1.312 16.348-1.35zM454 144c.348 1.975.348 1.975 1 4l2 1a124.97 124.97 0 005-2h2l1 7h-4v-2h-4l-2-2-1 6c2.615 2.568 3.945 2.996 7.672 3.293 1.36-.02 2.72-.055 4.078-.105l2.113-.042A394.56 394.56 0 00473 159l-1-5h5c-1 1-1 1-3 2v2c3.246 1.623 6.75 1.351 10.313 1.438l2.302.138c4.298.092 4.298.092 8.036-1.8 1.903-2.137 3.205-4.128 3.83-6.936l-.293-1.902-.208-1.91c-1.54-3.186-4.02-5.204-6.98-7.028-3.575-.745-3.575-.745-7.41-.629l-2.09-.007c-1.45 0-2.9.014-4.35.04-2.21.033-4.418.02-6.629 0-1.414.007-2.829.017-4.244.03l-3.867.033c-3.909.611-5.591 1.826-8.41 4.533z" fill="#5B8C84"/><path d="M491 230c1.646-.027 3.292-.046 4.938-.063l2.777-.035C501 230 501 230 502 231c1.34.156 2.688.25 4.035.316l2.451.127 2.577.12 2.587.13c2.117.107 4.233.207 6.35.307l1 2 1.125 2 .875 2-1 2-2.313-.563c-2.777-.665-2.777-.665-5.687.563v2l7 2v1l-12 1v2h-8v-5h4v-2h-9v-2h11v-2h-8v-2l1.934.035 2.503.028 2.497.035c2.058.135 2.058.135 3.066-1.098l-3.176.14c-1.379.038-2.758.075-4.137.11l-2.091.102c-2.022.039-2.022.039-5.596-.352-1.98-2.016-1.98-2.016-3-4z" fill="#489DDC"/><path d="M527 163h2c.21 17.678-.425 35.334-1 53-2.715-2.715-3.744-5.927-5.125-9.438l-.84-2.064C520.852 201.522 520 199.232 520 196c2.5-2.688 2.5-2.688 5-5-1.152-2.468-2.048-4.048-4-6 .207-6.417 1.264-17.264 6-22z" fill="#F9F9F7"/><path d="M394 197l2 1-1 3 11 2c-1.875 5.875-1.875 5.875-3 7l4 2-7 2 .563 3.938c.05 3.531-.377 4.82-2.567 7.664A117.837 117.837 0 01391 232l-2-1 1.969-1.723c4.767-4.071 4.767-4.071 7.629-9.433.015-2.093.015-2.093-.598-4.844h-2l1 4c-4.244-3.88-7.11-8.043-10-13-3.26.694-4.79 1.459-7 4l-2-1c7.763-7.205 7.763-7.205 13-9 1.773-1.52 1.773-1.52 3-3z" fill="#614C48"/><path d="M338 176c3 1 3 1 4.168 2.996l1.02 2.441 1.042 2.434C345 186 345 186 345 188h2c3.067 6.38 3.067 6.38 2.75 9.313A89.878 89.878 0 01348 201h-2c.295 4.169.295 4.169 2.55 7.457L350 210c-.242 7.507-2.213 14.73-4 22h-1l-.212-2.62c-1.274-15.42-2.576-30.62-6.018-45.74C338 180 338 180 338 176z" fill="#D2D3D3"/><path d="M487 219c3.396-.03 6.792-.047 10.188-.063l2.908-.025 2.822-.01 2.587-.016c2.587.118 4.972.543 7.495 1.114l-2 5h7v4h-24v-4h-5l-2-6z" fill="#6CACB7"/><path d="M446 184v21c-7.875-1.125-7.875-1.125-11-3v-2l-1.375 1.375L430 205c.69-3.784 1.65-7.397 2.813-11.063l.957-3.097c2.916-6.73 4.604-6.84 12.23-6.84z" fill="#8BCEC3"/><path d="M528 162h2c2.012 6.654 2.25 12.69 2.16 19.613l-.016 3.307c-.017 3.465-.049 6.928-.082 10.393-.027 3.481-.052 6.963-.07 10.445-.013 2.161-.03 4.323-.054 6.484l-.02 2.955-.025 2.598c.016 2.382.016 2.382 1.107 5.205 1.874.802 1.874.802 4.063 1.188l2.222.48L541 225v-2h2l-.035-2.598c-.047-5.91-.047-11.584 1.035-17.402h1v21c5.79-1.641 5.79-1.641 11.577-3.291l2.193-.615 2.237-.635C563 219 563 219 566 219l-.567-1.772c-.842-2.656-1.669-5.317-2.495-7.978-.295-.92-.59-1.84-.893-2.79l-.83-2.694-.778-2.476c-.471-2.469-.235-3.932.563-6.29l.595 1.988c.895 2.966 1.806 5.926 2.717 8.887l.936 3.129.928 2.988.84 2.761c.885 2.57.885 2.57 3.984 4.247a4540.98 4540.98 0 01-11.813 3.5l-3.392 1.012-3.252.957-3 .888C547 226 547 226 544 226l-1 2a160.286 160.286 0 01-5.313-.625l-2.988-.352C532 226 532 226 530.347 223.64c-1.864-5.034-1.7-9.559-1.605-14.881l.02-3.28c.024-3.451.067-6.902.113-10.353.035-3.444.066-6.888.091-10.332a1030 1030 0 01.07-6.417c.056-5.57-.196-10.868-1.036-16.376z" fill="#D7CD62"/><path d="M412 235c1.136 3.41.867 4.003-.438 7.188l-.87 2.167L410 246l1.813.313c2.575.81 3.65 1.465 5.187 3.687-.04 2.375-.04 2.375-.625 5l-.54 2.625c-.886 2.52-1.812 3.676-3.835 5.375l-4-2 3-6h-6l-3 6-5-2c.486-6.314.486-6.314 2.688-9.25C402 248 402 248 405 246.875c4.516-2.823 5.429-6.95 7-11.875zm-9 15l-2 5 3-2-1-3z" fill="#1D373D"/><path d="M433 200h2l5 5 3 1c.313 4.064-.267 6.03-2.75 9.25-.51.686-1.02 1.372-1.547 2.078-1.899 1.864-3.105 2.288-5.703 2.672l-2-3c-2.563-.73-2.563-.73-5-1 .31-1.459.622-2.917.938-4.375l.527-2.46C428 207 428 207 429 205h2l2-5z" fill="#CDE6E6"/><path d="M551 161l4 1c.505 2.728 1.004 5.457 1.5 8.188l.434 2.33c1.384 7.678 1.384 7.678 1.066 11.482-1.53 2.142-2.4 2.888-5 3.375-2.975.93-3.574 2.977-5 5.625h-1c.506-10.851 2.076-21.325 4-32z" fill="#F6F5F2"/><path d="M497 131c3.86 1.464 5.267 3.286 7 7 .688 3.813.688 3.813 1 7l3 1c1.343 2.686 1.243 4.877 1.313 7.875l.113 3.18c-.525 3.631-1.694 4.603-4.426 6.945l-1.563 2.625c-1.73 2.86-3.388 4.068-6.602 5.008-3.75.486-7.43.38-11.198.246l-2.4-.072c-2.517-.076-5.033-.16-7.55-.244-1.711-.054-3.423-.106-5.134-.159-4.185-.128-8.369-.264-12.553-.404v-1l3.608-.044c4.421-.058 8.842-.135 13.262-.218 1.913-.034 3.826-.062 5.738-.084 2.751-.034 5.501-.086 8.251-.142l2.59-.02c3.413-.084 5.956-.22 9.084-1.65 2.083-2.615 2.012-4.503 2.076-7.822l.098-3.526.043-3.682.09-3.716c.07-3.032.123-6.063.16-9.096l-5-1 2-1c-.613-2.962-1.254-4.38-3-7zm9 16l-1 4 2 1v-5h-1z" fill="#4C676A"/><path d="M535 138c-1.453 3.83-3.429 5.12-7 7l2 2h-2c-1.213 2.28-1.213 2.28-2 5 .766 2.286.766 2.286 2 4-3.735-.498-5.812-.875-9-3v-3l-1-2-5 2v-3h-2l2-6h2v2l5-1v-1-1c1.937-.336 3.875-.669 5.813-1l3.269-.563C532 138 532 138 535 138z" fill="#764E44"/><path d="M358 132h5c2.2 18.46 2.2 18.46-1 24v-7l-2.25-.25c-3.262-.89-4.56-2.235-6.75-4.75l-1.188 2.5L350 149c-2.688.313-2.688.313-5 0l4-2c-.656-3.61-.656-3.61-2-7-.04-2.333-.043-4.667 0-7h1l2 8c4.098-1.366 4.663-3.608 6.621-7.285L358 132z" fill="#603B32"/><path d="M303 250c1.5 1.313 1.5 1.313 3 3v3l2.813.813c4.392 1.636 4.392 1.636 6.187 4.187l1 5h-25c2.884-2.884 5.545-5.299 8.75-7.75l2.422-1.86L304 255l-1-5z" fill="#6A544D"/><path d="M500 253v13h-13c-.604-10.15-.604-10.15 2-13.813 4.335-1.716 6.634-.667 11 .813z" fill="#D0E8E7"/><path d="M321 205c2.377 2.377 2.403 3.35 2.852 6.613l.39 2.783.383 2.917.406 2.88c.59 4.312 1.042 8.449.969 12.807-1.53-1.948-2.883-3.751-3.938-6-.971-2.106-.971-2.106-2.875-3.625-3.326-3.612-5.127-7.951-7.187-12.375 4.75-4 4.75-4 7-4l2-2zm-7 6l1 2z" fill="#DEE1E1"/><path d="M324 169l2.414.465c4.32.645 8.601.885 12.961 1.097l2.52.131c2.035.106 4.07.207 6.105.307-3.216 1.746-5.32 2.204-9 2 2.079 2.18 4.219 3.964 6.688 5.688l1.886 1.324L349 181l-2 1-2-1 1 7c-2.96-3.364-3.923-6.692-5-11h-2l.367 1.984c.356 1.936.707 3.872 1.055 5.809.376 2.088.761 4.174 1.156 6.258 1.161 6.393 1.68 12.454 1.422 18.949h-1v-6h-2l-.367-3.902-.508-5.036-.238-2.576-.254-2.45-.222-2.27L338 186l-2-1v-10l-2.625-.25c-3.868-.86-6.243-2.364-9.375-4.75v-1z" fill="#333433"/><path d="M486 194c3.375.313 3.375.313 7 1l2 3h-2v3l3-1c1.25 6.5 1.25 6.5-1 11h-10c-.027-2.458-.047-4.917-.063-7.375l-.025-2.117c-.025-5.281-.025-5.281 1.088-7.508z" fill="#9ED5CC"/><path d="M532 99c6.152-.098 6.152-.098 8 0l1 1c2.353.073 4.708.084 7.063.063l3.91-.028L555 100v2l-5 2v6c-3.75 1.125-3.75 1.125-6 0a62.266 62.266 0 00-4.125-.063L536 110l-.25-3.375c-.329-3.683-.329-3.683-2.813-5.063L531 101l1-2z" fill="#764D42"/><path d="M558 259h22v7h-22v-7z" fill="#FDFDFD"/><path d="M475 214h48c-2 2-2 2-4.16 2.23l-2.903-.042-3.453-.051c-9.831-.273-19.658-.705-29.484-1.137l1 5-2 1-1 3h3v9c-3.106-3.106-3.813-4.892-5-9h-5v13c-2-2-2-2-2.195-4.82l.07-3.305.055-3.32L472 223l6-1-1.5-2.875C475 216 475 216 475 214z" fill="#4B8AB0"/><path d="M358 98c3 3.75 3 3.75 3 6l3 1c2.647 3.532 2.17 7.41 1.977 11.61l-.076 2.202c-.082 2.313-.179 4.625-.276 6.938a3781.48 3781.48 0 00-.172 4.715c-.14 3.845-.293 7.69-.453 11.535h-1l-1-14-8-1 1-3h6c.214-6.328.115-10.436-4.063-15.5-2.058-2.656-2.849-4.15-2.937-7.5 1.438-1.813 1.438-1.813 3-3z" fill="#18191F"/><path d="M460 247l1.625 2.313c2.577 2.916 4.833 4.158 8.375 5.687v11h-11c-.027-2.604-.047-5.208-.063-7.813l-.025-2.236c-.015-3.25.053-5.845 1.088-8.951z" fill="#D6EEEE"/><path d="M474 110c2.563-.25 2.563-.25 5 0 1 1 1 1 1.125 4-.125 3-.125 3-1.125 4a69.603 69.603 0 00-.563 4.063L478 126l3.395.332 4.418.48 2.236.213c4.089.463 6.252.867 8.951 3.975l-3.68-.984c-6.137-1.36-12.184-1.309-18.445-1.266l-3.457-.023c-5.855.013-10.9.258-16.418 2.273 2.32-3.275 5.145-3.658 8.951-4.33l2.236-.357 2.272-.393c1.845-.317 3.693-.62 5.541-.92.167-4.996.167-4.996-1.125-9.75L472 113l2-3z" fill="#34493E"/><path d="M474 224h5c1.338 2.456 2.67 4.914 4 7.375l1.156 2.117C487 238.773 487 238.773 487 241c-1.415.109-2.832.186-4.25.25l-2.39.14c-2.36-.39-2.36-.39-4.641-1.984-2.29-3.207-2.125-5.257-1.969-9.156l.11-3.547L474 224z" fill="#9BD5CE"/><path d="M529 253h14v10h-14v-10z" fill="#DDD251"/><path d="M512 253h16v13h-8v-8l-8-1v-4z" fill="#FAFBFA"/><path d="M297 134c2.875.25 2.875.25 6 1 1.375 2.063 1.375 2.063 2 4h-4l1 2c-.938 2.125-.938 2.125-2 4l2.375-.625L305 144l2 2h2v3c-3.462 1.583-6.205 2.76-10 2-3.608-3.287-4.83-4.768-5.5-9.625.51-3.441 1.125-4.9 3.5-7.375z" fill="#724D44"/><path d="M456.727 198.863l2.273.012 2.273-.012c5.6.01 5.6.01 6.727 1.137.125 3 .125 3 0 6-1.981 1.981-5.734 1.185-8.438 1.188l-2.103.037c-1.821.005-3.642-.103-5.459-.225-2-2-2-2-2.188-4.563.356-4.626 2.836-3.566 6.915-3.574z" fill="#9DD1C8"/><path d="M387.471 170.66h2.73l2.936.047 3.014.013c3.179.017 6.357.054 9.536.092 2.155.016 4.31.03 6.463.042 5.284.033 10.567.083 15.85.146v2c-2.905.833-5.475 1.122-8.493 1.114h-2.669l-2.854-.016-2.942-.005a4034.51 4034.51 0 01-9.292-.03A8341.978 8341.978 0 01380 174c2.373-2.875 3.777-3.372 7.471-3.34z" fill="#D3F3FA"/><path d="M410 116l4 1v2l9-3 2 2c-.375 2.125-.375 2.125-1 4h-8v5h-2l-2-2-2 1c-2.125-.938-2.125-.938-4-2v2l-3-1c-2.143.39-2.143.39-4 1 1.342-4.026 3.423-4.883 7-7h2l2-3zm2 4l1 2 1-2h-2z" fill="#E2FBFD"/><path d="M452 145h1l.078 1.828.172 2.422.14 2.39c.836 3.234 1.893 4.42 4.61 6.36 3.504.483 3.504.483 7.25.25l3.828-.11L472 158l-1-5h9c-2.875 3.875-2.875 3.875-4 5 2.73.135 5.455.234 8.188.313l2.33.126c4.448.096 5.958-.006 9.533-2.959L498 153c-.562 3.262-1.414 4.911-4 7-5.302 1.767-11.016 1.265-16.569 1.295-1.49.012-2.98.032-4.471.062-2.16.043-4.32.059-6.48.069l-3.909.044c-4.183-.55-6.314-1.84-9.571-4.47-2.56-4.119-1.91-7.36-1-12z" fill="#55827B"/><path d="M330 132h4c.125 7.75.125 7.75-1 10h-2v2h2c-.875 3.875-.875 3.875-2 5-1.996-.05-1.996-.05-4.438-.313l-2.433-.238C322 148 322 148 320 146v-3c3.435-2.29 4.985-2.178 9-2l-.063-3.938A59.19 59.19 0 01329 133l1-1z" fill="#684037"/><path d="M326 84c4.992.468 9.13 2.917 13 6v2l3 1c1.188 3.063 1.188 3.063 2 6l5 1 1-3 8-1c-.506 2.169-1 4-2 6 .4 2.098.4 2.098 1 4-4.75-.875-4.75-.875-7-2a121.305 121.305 0 00-5.125-.563l-2.758-.253L340 103l3-2c-3.755-6.988-7.944-10.736-14.805-14.688L326 85v-1z" fill="#1D191D"/><path d="M544 234c2 3.75 2 3.75 2 6h-2v4h-2v2c-4.028 1.611-7.06.478-11-1-2.438-2.125-2.438-2.125-4-4h8v-2l-4-1c3.314-2.21 4.345-2.225 8.188-2.125l2.73.055L544 236v-2z" fill="#6E4E48"/><path d="M499 235h9l2 7 2.152.148 2.785.227 2.778.21L520 243l1 2-12 1v2h-8v-5h4v-2h-9v-2h11v-2h-8v-2z" fill="#6FB9D8"/><path d="M538 118h5l.125 3.813c.183 2.197.183 2.197.875 4.187 2.918 2.086 2.918 2.086 6 3-.875 4.875-.875 4.875-2 6-1.813.133-1.813.133-4 .125l-2.188.008C540 135 540 135 539 134c-.294-3.722-.148-4.778 2-8h-2c-1.354-2.709-1.065-5.01-1-8z" fill="#674137"/><path d="M448 139h1l.076 2.231c.116 3.34.239 6.68.361 10.019l.12 3.512.127 3.379.11 3.11c.179 2.385.534 4.462 1.206 6.749-1.5-1.375-1.5-1.375-3-3v-2l-1.938-.938C444 161 444 161 443 160a99.198 99.198 0 01-.313-6.313l-.113-3.488c.508-3.815 1.56-4.763 4.426-7.199.787-2.138.787-2.138 1-4z" fill="#234648"/><path d="M342 198l4 1-.25 2.688c-.08 3.414-.08 3.414 2.313 5.625 2.102 2.915 2.206 3.318 1.875 6.687-.985 6.06-2.473 12.04-3.938 18h-1l-3-34z" fill="#F7F9F9"/><path d="M501 253h10v5l7 1v7h-8l-.063-2.813c-.565-3.194-.565-3.194-2.562-4.253-1.757-.734-3.565-1.342-5.375-1.934l-1 2v-6z" fill="#A6D0DF"/><path d="M547 240h1v8h-2l1 4h-51v-1h44v-2l-10-1 1-2 1.723.07c5.203.122 9.35-.393 14.277-2.07v-4z" fill="#568EB5"/><path d="M402 191l3 1-1 6h7l1-4 8 1c-.377 6.165-2.159 9.174-6 14l-1-2 1-3c.067-1.394.085-2.792.063-4.188L414 196h-1l-1 7-1-4-2.012.07c-8.77.18-8.77.18-12.988-2.07l6-6z" fill="#2A221F"/><path d="M523 215c3.191 1.596 4.118 4.847 5.625 7.938l.984 1.958C532 229.733 532 229.733 532 232l-8 2c.486 3.123.999 5.996 2 9h-3l-2-8h-10v-1h9v-2h-3l2-4v2l1.75-1c2.25-1 2.25-1 6.25-1l-.875-1.828L525 223.75l-1.125-2.39C523 219 523 219 523 215z" fill="#4994CB"/><path d="M529 170h1l-.013 1.865c-.045 6.407-.075 12.815-.097 19.223-.01 2.39-.024 4.782-.04 7.172-.025 3.438-.036 6.876-.045 10.314l-.032 3.236v3.033l-.014 2.658c.27 2.802 1.15 4.917 2.241 7.499.125 2.813.125 2.813 0 5-3.21-2.67-4.51-5.922-6.188-9.688l-1.605-3.574L523 214l4 1 .076-2.839c.096-3.534.195-7.067.296-10.6.043-1.52.085-3.038.125-4.557.242-9.032.616-18.006 1.503-27.004z" fill="#545F49"/><path d="M313.875 92.563l2.664.011c6.46.144 11.802 1.149 17.461 4.426l2 1v2h2v2c-2.765-.873-5.461-1.733-8.063-3.023-8.523-4.06-18.256-4.549-27.34-2.036a98.407 98.407 0 00-5.558 2.282L295 100l-2-1c5.584-6.106 13.084-6.527 20.875-6.438z" fill="#323337"/><path d="M355 203c2.535 3.802 2.514 7.144 2.781 11.57l.18 2.536c.252 3.582.484 7.165.716 10.748.173 2.614.357 5.228.542 7.841l.148 2.475c.14 1.95.376 3.892.633 5.83 3.74 1.87 8.468 1.306 12.5.5l1.5-.5c-1.973 2.669-3.109 3.024-6.438 3.75-3.055.214-4.722.074-7.562-.75l.5 3.875c.57 5.053.595 10.046.5 15.125-2.003-3.005-2.278-3.826-2.487-7.233l-.171-2.583-.158-2.793-.186-2.906a2217.57 2217.57 0 01-.56-9.235l-.381-6.082c-.246-3.92-.488-7.84-.725-11.76-.414-6.805-.868-13.606-1.332-20.408z" fill="#5B5F63"/><path d="M506 127c3.375-.188 3.375-.188 7 0 2 3 2 3 1.625 5.188L514 134l-6 1v5l3 1c.75 1.938.75 1.938 1 4l-1 2h2l-1 3c-.817-1.1-1.629-2.206-2.438-3.313l-1.37-1.863c-2.468-3.777-2.298-7.126-2.255-11.512l.028-3.574L506 127z" fill="#6A433C"/><path d="M422 222c6.625-.25 6.625-.25 10 2-.492 6.4-.492 6.4-3.063 9.438L427 235l-3-1v-3l-1 2h-2l.219-1.898.281-2.477.281-2.46c.253-2.134.253-2.134.219-4.165z" fill="#D5EEEE"/><path d="M560 195c2.254 2.254 2.578 3.471 3.402 6.5l.76 2.688c.517 1.874 1.03 3.749 1.54 5.625l.763 2.687.675 2.469c.788 2.38.788 2.38 3.86 4.031a3353.899 3353.899 0 01-11.75 3.5l-3.367 1.012-3.242.957-2.984.888C547 226 547 226 543 226c-.027-2.52-.047-5.042-.063-7.563l-.025-2.134c-.02-4.543.34-8.82 1.088-13.303h1v21c5.79-1.641 5.79-1.641 11.577-3.291l2.193-.615 2.237-.635C563 219 563 219 566 219l-.55-1.772c-.823-2.658-1.637-5.318-2.45-7.978l-.867-2.79-.82-2.694-.762-2.476C560 199 560 199 560 195z" fill="#6F6D5D"/><path d="M322.313 104.027L324 105c-2.82 1.41-5.354 1.193-8.5 1.313-10.62.727-18.19 3.834-25.5 11.687-1.957 2.72-1.957 2.72-3 5l-2-1c.561-3.472 1.572-4.84 4.313-7 2.005-1.6 3.814-3.136 5.57-5.016 6.709-6.288 18.733-9.82 27.43-5.957z" fill="#2D2E33"/><path d="M491 231l3 1v2h15l-1 2-2.922-.07-3.828-.055-3.797-.07c-3.181.18-4.818.505-7.453 2.195l1 2c.04 2 .043 4 0 6l-1.563-1.5c-2.448-1.8-2.448-1.8-5.875-1.5-3.912 0-5.56-.543-8.562-3v-3l3 2v1l9 1-1.563-2.875L484 235l1-2 2 3 3 1 1-6z" fill="#4887A6"/><path d="M310 122l-1 2-2.625.25c-5.642 1.254-9.229 5.03-12.375 9.75-.451 2.05-.451 2.05-.625 4.188L293 142c-3.653-1.25-4.78-1.671-7-5 .375-2.188.375-2.188 1-4l1 3h3l.375-2.313C292 131 292 131 294 128h2l.813-1.875C298 124 298 124 301 122c3.373-.951 5.666-1.111 9 0z" fill="#2F3036"/><path d="M518 198c2.408 2.408 3.008 4.422 4.125 7.625l1.07 3.04L524 211a304.93 304.93 0 01-6.313.25l-3.55.14C511 211 511 211 509.082 208.985L508 207l3.313-1.125c3.233-1.355 3.673-1.852 5.625-5.063L518 198z" fill="#D2E7E5"/><path d="M510 106l3 1v2l-5 1v2h6l-2 2a89.901 89.901 0 00-1 6h-2c1.168 3.814 1.168 3.814 4.125 6.313L515 127c-3.069 1.534-5.7.55-9 0-.027-2.792-.047-5.583-.063-8.375l-.025-2.406c-.025-5.992-.025-5.992 1.088-8.219h3v-2z" fill="#754F47"/><path d="M491 129c4.957 1.24 7.117 2.786 10 7l-1 2h-2l-1 5-2.032-1.468c-3.675-1.897-6.33-1.962-10.456-2.044l-2.131-.054a730.977 730.977 0 00-6.693-.121c-1.52-.034-3.038-.068-4.557-.104-3.71-.085-7.42-.152-11.131-.209v-1l2.814-.076c3.44-.095 6.88-.194 10.32-.296 1.49-.044 2.98-.085 4.47-.125 2.14-.058 4.28-.122 6.42-.187l3.903-.11c2.986-.001 2.986-.001 5.073-1.206l2 2c0-2.025-.595-4.024-1-6h-3v-3z" fill="#C0DAD8"/><path d="M475 192c3.646-.029 7.292-.047 10.938-.063l3.154-.025 2.998-.01 2.777-.016C497 192 497 192 498 193c-.09 2.024-.246 4.045-.438 6.063l-.308 3.347L497 205l-2-4h-2l1-4-8-3-1 17h-1v-18h-9v-1z" fill="#4B6D6A"/><path d="M475 216c1.892 2.386 3.024 4.072 4 7h-18v-3l-2-1c1-1 1-1 4.379-1.098 1.394.007 2.789.019 4.183.036l2.155.013c1.76.012 3.522.03 5.283.049v-2z" fill="#142028"/><path d="M491 246l3 4c-3.75 3.875-3.75 3.875-6 5-.468 2.586-.468 2.586-.625 5.563l-.227 3.066L487 266h-1l-1-10-4.813.563c-3.302.385-4.987.504-8.187-.563v10h-2v-11l-3-1 3-1 2 1c7.858.716 7.858.716 15.125-1.75 1.698-2.037 2.908-3.788 3.875-6.25z" fill="#1A2E39"/><path d="M466 149h2c1.603 3.118 2.19 4.39 1.125 7.813L468 159c-1.582.082-3.166.14-4.75.188l-2.672.105c-3.025-.344-4.334-1.295-6.578-3.293l1-6 3 3 3-1 1 2 4-1v-4z" fill="#88CEC1"/><path d="M426 211l2 3h-2v2h5l2 4 3-1c-1.128 4.109-2.335 8.076-4 12-1-2-1-2-.875-4.438.129-2.624.129-2.624-1.625-4.375L428 221l4 1-2-4h-3l-1 2-2.324.184c-3.023.606-3.023.606-4.696 3.976a152.554 152.554 0 00-1.793 3.903l-.943 2.01A329.37 329.37 0 00414 235c-1-3-1-3 .293-5.996l1.894-3.441 1.856-3.434c1.777-2.84 3.535-4.851 5.957-7.129 1.235-2.133 1.235-2.133 2-4z" fill="#3B575C"/><path d="M313 163c1.96.57 1.96.57 4 2 .54 3.117.54 3.117.625 6.875.099 5.86.099 5.86 2.375 11.125h-3l-1-6-3 1c-.912 7.358-1.115 14.59-1 22h-2v-21l-5.875 3.063c-3.305 1.722-3.305 1.722-6.125 2.937l-2-1c5.112-3.484 10.197-6.043 15.996-8.203 1.969-.63 1.969-.63 3.004-1.797.463-5.876.463-5.876-2-11z" fill="#3C4141"/><path d="M498 192c4.128 6.192 5.396 11.61 5 19h-7l2-19z" fill="#CFEAE8"/><path d="M317 183l4 1c0 3 0 3-1 6h3c2.334 8.67 2.199 17.105 2 26h-1l-.427-2.06-1.948-9.377-.672-3.24A1149.001 1149.001 0 00317 183z" fill="#2CA380"/><path d="M491 148h1v5l3 1-2 2 2 1c-2 2-2 2-5.844 2.23a357.502 357.502 0 01-4.656-.042l-2.379-.002c-5.84-.046-5.84-.046-8.121-1.186l1-2c4 0 4 0 6.188.563L483 157l1-1a93.365 93.365 0 014-1v-4h2l1-3z" fill="#87CEC0"/><path d="M444 183l4 1-.105 3.297c-.2 9.07.38 16.964 3.105 25.703.342 1.331.68 2.664 1 4-3.092-2.53-3.91-5.225-5-9l-4 1v-3l-2.375-.313C438 205 438 205 436 202l10 3-.5-3.375c-.728-5.83-1.375-11.999.5-17.625l-2-1z" fill="#3F6060"/><path d="M457 130l1 2-1.563 1.125L455 135l.625 2.688c.55 4.85-1.832 7.504-4.625 11.312-2.83-4.244-2.652-8.017-2-13 1.806-3.16 2.83-4.577 6.25-5.813L457 130z" fill="#D1EBEA"/><path d="M523 234l1 2h9v2l2 1v2l-7 1 8 1-3 2 5 1v1c-6.75.125-6.75.125-9-1v-2l-3-1c-1.886-3.213-3-5.246-3-9z" fill="#3E3336"/><path d="M285 127h1v5l3-1v5l-2-2c.113 2.409.113 2.409 1 5 2.461 1.844 2.461 1.844 5 3l-.313-3.625c-.03-3.49.552-5.212 2.813-7.875l2.5-2.5 3 1-2 3 4 1-3.375 1.063c-1.957.74-1.957.74-3.625 1.937-1.53 3.559-1.53 3.559-2 7-5.488-.488-5.488-.488-7.688-2.688-1.639-2.888-1.617-4.765-1.5-8.062l.083-2.984L285 127z" fill="#231726"/><path d="M489 221h21l-1 3c-6.712.88-13.234 1.114-20 1v-4z" fill="#83C2D0"/><path d="M485 172v5l3.438-.188c4.926-.017 8.986 1.517 13.562 3.188 2.714.949 2.714.949 5 1 1.835-1.334 1.835-1.334 3-3l-.75 1.75L509 182c1.854 2.271 1.854 2.271 4 4l-6.055-.879c-2.026-.29-2.026-.29-3.945.879v-4c-6.686-1.987-13.043-3.43-20-4l-1-3-7-1v-1c3.435-.625 6.49-1 10-1z" fill="#1B2F35"/><path d="M413 251c-.75 6.625-.75 6.625-3 10l4-1v2l-4 1-2-4 3-4h-6l-3 6-4-2h4l-.188-2.25c.224-3.275.885-4.447 3.188-6.75 3.3-1.49 4.98-.834 8 1z" fill="#1A2A2F"/><path d="M491 230c1.646-.027 3.292-.046 4.938-.063l2.777-.035C501 230 501 230 502 231c1.34.156 2.688.25 4.035.316l2.451.127 2.577.12 2.587.13c2.117.107 4.233.207 6.35.307v2c-4.27.116-8.54.187-12.813.25l-3.681.102-3.526.039-3.253.063C494 234 494 234 492.127 231.976L491 230z" fill="#7BC9E9"/><path d="M412 246l5 4-2 10-5 1 2-10h-4a69.17 69.17 0 01-4-1l1-2h7v-2z" fill="#314246"/><path d="M513 186c2.837 1.023 3.827 1.663 5.23 4.39l.957 2.86.997 2.973c.856 2.912 1.49 5.757 1.816 8.777-2-2-2-2-3-5l-2.188 2.875c-2.31 2.8-4.26 4.11-7.812 5.125l2 3-4-1-1-4 3.313-.75c3.907-1.324 4.757-1.767 6.687-5.25.222-2.726.222-2.726-.188-5.563l-.292-2.878c-.398-2.786-.398-2.786-2.52-5.559z" fill="#607A76"/><path d="M498 235l1 2-3 1c-.733 2.015-.733 2.015-1 4l3 1 1 6c-3.374-.602-5.598-1.515-8-4-.938-3.5-.938-3.5-1-7 1.998-3.44 4.252-3.304 8-3z" fill="#459DDD"/><path d="M497 131c2.505.95 3.893 1.873 5.625 3.938 3.966 8.832 3.484 17.631 2.375 27.062h-2v-22l-5-1 2-1c-.613-2.962-1.254-4.38-3-7z" fill="#6D898A"/><path d="M294 144c1.791-.054 3.583-.093 5.375-.125l3.023-.07C305 144 305 144 307 146h2v3c-3.462 1.583-6.205 2.76-10 2-2.017-1.851-3.39-3.746-5-6v-1z" fill="#6C5049"/><path d="M564 120c3.375.313 3.375.313 7 1 2.684 4.026 2.795 7.27 2 12-2.063 3.063-2.063 3.063-5 5-3.813.313-3.813.313-7 0v-1h6l2-6 2 1v-8h-2l-1 2-2 1v3l-3-2c1.152-2.468 2.048-4.048 4-6h-3v-2z" fill="#583934"/><path d="M320 224c3.46 2.307 4.224 4.15 5.424 8.058 1.224 6.254.879 12.66.764 19.004a2242.66 2242.66 0 00-.042 4.358c-.032 3.527-.084 7.053-.146 10.58h-1l-1-28-4-1v-3h4l-.875-1.68-1.125-2.195-1.125-2.18C320 226 320 226 320 224z" fill="#9AABA6"/><path d="M304 153l3 1-1.125 3.438c-1.258 4.884-.303 8.815 1.125 13.562l-3-2h-3c-.081-1.916-.14-3.833-.188-5.75l-.105-3.234c.322-3.316 1.064-4.606 3.293-7.016z" fill="#0A1016"/><path d="M456.727 198.863l2.273.012 2.273-.012c5.6.01 5.6.01 6.727 1.137.125 3 .125 3 0 6-1.981 1.981-5.734 1.185-8.438 1.188l-2.103.037c-1.821.005-3.642-.103-5.459-.225-2-2-2-2-2.188-4.563.356-4.626 2.836-3.566 6.915-3.574zM452 200l1 2h3v2l-4-1 1 3c2.146.027 4.292.046 6.438.063l3.62.035c2.83.241 2.83.241 3.942-1.098v-5h-15z" fill="#4B6D69"/><path d="M338 176c3 1 3 1 4.387 3.398l1.3 2.977 1.325 2.96C346 188 346 188 346 191l-5 2c-.505-2.082-1.004-4.166-1.5-6.25l-.844-3.516C338 180 338 180 338 176z" fill="#F6FBFA"/><path d="M328 81l12 4c.625 2.375.625 2.375 1 5l-2 2v-2l-1.625-.813a144.375 144.375 0 01-5.313-2.812c-3.035-1.363-4.794-1.663-8.062-1.375v-2h4v-2z" fill="#161920"/><path d="M466 171h20v6h-1v-5l-8 2v1h-11v-4z" fill="#101B1F"/><path d="M548 168c1.231 3.694.644 6.206 0 10l-2-3c-2.513-.699-2.513-.699-5.375-.875l-2.898-.305c-3.183.21-4.408 1.059-6.727 3.18v-7l1.563.5c6.017 1.234 10.14.6 15.437-2.5z" fill="#D6CA4F"/><path d="M394 197l2 1-1 3 10 2v1c-2.104.168-4.208.334-6.313.5l-3.55.281A88.24 88.24 0 01389 205v-2l-4 1c1-2 1-2 3.375-2.938 2.585-1.046 3.83-1.983 5.625-4.062z" fill="#44312B"/><path d="M413 195l2 1c.18 5.22-.03 9.073-2 14l-6 1 3-1-.563-2.375C409 205 409 205 410 203h2l-.063-3.438C412 196 412 196 413 195z" fill="#744F47"/><path d="M448 145v17c-4-4-4-4-4.496-6.473l.058-2.59.004-2.597c.44-2.37 1.556-5.34 4.434-5.34z" fill="#86C3B9"/><path d="M299 133c3.143.35 4.795.84 7.313 2.813C308 138 308 138 308 142h-2l-1 3h-5l.625-2.375L301 140l-2-2h5c-1.255-2.51-2.5-2.871-5-4v-1z" fill="#6B4A41"/><path d="M545 155c-5.368 3.869-9.365 5.645-16 6v-3l-3-1c2.79-.529 5.582-1.048 8.375-1.563l2.406-.458c5.992-1.092 5.992-1.092 8.219.021z" fill="#130F13"/><path d="M326 84c4.992.468 9.13 2.917 13 6v2l3 1c1.886 3.213 3 5.246 3 9l2 1h-7l3-2c-3.755-6.988-7.944-10.736-14.805-14.688L326 85v-1z" fill="#323136"/><path d="M405 203c0 3.106-.54 4.353-2 7l4 2c-7.429 2.429-7.429 2.429-11 1l4-6-2-2 7-2z" fill="#724C3E"/><path d="M347 87c8.233 2.106 11.809 7.908 16.547 14.5 1.488 2.56 2.057 4.585 2.453 7.5-2-1-2-1-3-4l-2-1.875c-2.27-2.413-2.64-3.886-3-7.125l-1.875-.25C354 95 354 95 353.062 93.062c-.935-2.327-.935-2.327-3.687-3.312L347 89v-2z" fill="#061118"/><path d="M535 138c-1.37 3.161-1.99 3.993-5 6-2.938.375-2.938.375-6 0-2.191-2.023-2.191-2.023-4-4 1.937-.336 3.875-.669 5.813-1l3.269-.563C532 138 532 138 535 138z" fill="#F6F2F1"/><path d="M526 243l3 1c.688 2.063.688 2.063 1 4l3.875-.063c3.875-.062 3.875-.062 6.125 1.063v2h-16l3-3c-.23-2.655-.23-2.655-1-5z" fill="#4A98D3"/><path d="M496 237h11v2h-11v2h9v2h-4v2h-5l1-2-2-1 1-5z" fill="#539FC0"/><path d="M364 142c.054 1.583.093 3.166.125 4.75l.07 2.672c-.204 2.692-.83 4.277-2.195 6.578v-7l-5-1v-4c2.647-1.46 3.894-2 7-2z" fill="#493029"/><path d="M501 243l20 1v1l-12 1v2h-8v-5z" fill="#83CADB"/><path d="M337 183h3c1.768 9.07 3.442 17.714 3 27h-1v-6h-2l-.402-3.832-.536-4.98-.263-2.526-.264-2.432-.238-2.237c-.269-2.196-.269-2.196-1.297-4.993z" fill="#368770"/><path d="M530 203h1l.184 3.613.254 4.7.119 2.38.127 2.295.11 2.11c.162 2.124.162 2.124 1.206 4.902 1.874.802 1.874.802 4.063 1.188l2.222.48L541 225v-2h2l1 5a296.983 296.983 0 01-5.875-.75l-3.305-.422C532 226 532 226 530.836 224.232c-.911-2.433-1.066-4.189-1.031-6.779l.02-2.558.05-2.645.027-2.691c.024-2.187.057-4.373.098-6.559z" fill="#DED454"/><path d="M439 184l2 1c-3 6-3 6-5 7v10l-1-2-1.375 1.375L430 205c.69-3.784 1.65-7.397 2.813-11.063l.957-3.097c1.313-3.03 2.762-4.683 5.23-6.84z" fill="#386363"/><path d="M512 258l6 1v7h-7l1-8z" fill="#F8F8F9"/><path d="M363 121c2.067 3.1 2.245 3.73 2.195 7.23l-.02 2.432-.05 2.525-.027 2.561c-.024 2.084-.06 4.168-.098 6.252h-1l-1-14-8-1 1-3h6l1-3z" fill="#2A2220"/><path d="M336 152l15 3-2 3c-4.762.546-6.91.68-11-1.875-2-2.125-2-2.125-2-4.125z" fill="#F2EFED"/><path d="M516 147l3 1v2l2 1-1 2 6 3c-2.521.931-3.615 1.16-6.14.11l-2.11-1.36-2.14-1.328L514 152c0-3 0-3 2-5z" fill="#503633"/><path d="M355 127c6.152-.098 6.152-.098 8 0 1 1 1 1 1.098 4.16l-.036 3.903-.027 3.91L364 142c-3.156-2.81-3.37-4.855-4-9l-2-1v-2l2-1-5-1v-1z" fill="#5F4540"/><path d="M341.875 102.75l2.297-.023c5.574.02 5.574.02 7.828 2.273l-3.473-.07c-1.53-.02-3.06-.037-4.59-.055-.752-.017-1.504-.034-2.279-.05-4.94-.044-9.01.446-13.658 2.175l-1 2-4-1c2.324-3.485 3.757-3.777 7.731-4.643 3.724-.586 7.381-.647 11.144-.607z" fill="#694D49"/><path d="M458 179h11v5l-4 1v-2l-7-1v-3z" fill="#DDF2F3"/><path d="M308 123h1c.027 1.958.046 3.917.063 5.875l.035 3.305C309 135 309 135 308 137c-3.875-1.75-3.875-1.75-5-4h3l-.688-1.625c-.452-3.436 1.016-5.433 2.688-8.375z" fill="#201616"/><path d="M474.625 253.938l3.04.59L480 255v2l-8-1v10h-2v-11l-3-1c2.815-1.407 4.57-.667 7.625-.063z" fill="#597376"/><path d="M430 231c0 4.176-1.834 5.54-4.5 8.688l-2.531 3.011L421 245c0-3.411.491-6.63 1-10l2.875-.875c3.177-.893 3.177-.893 5.125-3.125z" fill="#758F92"/><path d="M353 186c3.827 3.424 5.723 6.007 7 11h-5v5c-2-3-2-3-1.75-6.125L354 193l2-1-1.5-1.875C353 188 353 188 353 186z" fill="#8D979A"/><path d="M330 132h4v8h-4c-1-1-1-1-1.125-4 .125-3 .125-3 1.125-4z" fill="#211813"/><path d="M297 261c3 1 3 1 5 3v-2l4 1c-3.769 2.512-6.262 3.127-10.688 3.063l-2.449-.028L291 266c3.75-3.875 3.75-3.875 6-5z" fill="#513F39"/><path d="M431 211.188c2 .812 2 .812 3.25 2.625C435 216 435 216 435 220h-2l-2-3c-2.563-.73-2.563-.73-5-1 .375-1.938.375-1.938 1-4 2-1 2-1 4-.813z" fill="#D8F1F2"/><path d="M488 201c5.538.615 5.538.615 7.875 2.563L497 205l-1 2-1.813-.625c-2.472-.682-2.472-.682-5.187 1.625l-2-2c.375-2.625.375-2.625 1-5z" fill="#8ECFC2"/><path d="M528 262l8 1v2l8-1v2h-16v-4z" fill="#27211C"/><path d="M424 215l1 2 2 1-1 2-2.324.184c-3.023.606-3.023.606-4.696 3.976a152.554 152.554 0 00-1.793 3.903l-.943 2.01A329.37 329.37 0 00414 235c-1-3-1-3 .293-5.996l1.894-3.441 1.856-3.434c1.768-2.827 3.494-4.906 5.957-7.129z" fill="#315054"/><path d="M314 262l1 4h-15c4.477-2.985 8.638-4 14-4z" fill="#EFF0EC"/><path d="M402 191l3 1v4c-3 2-3 2-6.188 1.625L396 197l6-6z" fill="#403431"/><path d="M308 257c3.318.987 4.765 1.687 6.875 4.5L316 264l-1 2-1-4-7 1-1-3 2-3z" fill="#5B4947"/><path d="M508 220h5l-2 5h7v1c-2.062.027-4.125.046-6.188.063l-3.48.035c-2.925-.086-5.495-.42-8.332-1.098v-1l1.934-.148 2.503-.227c.824-.07 1.648-.14 2.497-.21L509 223l1-2-2-1z" fill="#509AC9"/><path d="M342 198l4 1c.042 2.333.04 4.667 0 7l-1 1a177.036 177.036 0 00-.063 7.063l.028 3.91L345 221h-1l-2-23z" fill="#E1EFEC"/><path d="M484 146c2.063.438 2.063.438 4 1v6c-1.938.563-1.938.563-4 1-1-1-1-1-1.125-4 .125-3 .125-3 1.125-4z" fill="#11292A"/><path d="M538 118h5c.125 5.75.125 5.75-1 8h-3c-1.354-2.709-1.065-5.01-1-8z" fill="#1F1410"/><path d="M488 222l1 3h5v4h-7v-5l-2-1 3-1z" fill="#469AD0"/><path d="M429 205h6l-1 4h-2v2l-5 1c.875-4.75.875-4.75 2-7z" fill="#AAC6C6"/><path d="M512 117c2.063.438 2.063.438 4 1l-1 7-4-1c-.043-2-.04-4 0-6l1-1z" fill="#201814"/><path d="M401 250l2 1-.5 1.75c-.645 2.517-.645 2.517-.5 6.25h-5c.313-3.375.313-3.375 1-7l3-2z" fill="#2E4046"/><path d="M487 245l4 1c-1.346 4.406-3.194 6.43-7 9h-2v-2l2-1 1-3 2-2v-2z" fill="#CFE6E5"/><path d="M323 197c2.528 3.792 2.224 6.809 2.125 11.188l-.027 2.271c-.024 1.847-.06 3.694-.098 5.541h-1c-.34-1.874-.671-3.75-1-5.625l-.563-3.164c-.426-3.129-.585-6.058-.437-9.211l1-1z" fill="#38A987"/><path d="M462 146l3 1v7h-4c-.625-2.875-.625-2.875-1-6l2-2z" fill="#112928"/><path d="M559 110h1v10l2.75-1.125c3.25-.875 3.25-.875 5.625 0L570 120l-3.375.813c-3.843.845-3.843.845-5.625 4.187h-2v-15z" fill="#2E1C1A"/><path d="M360 109h2l2 5 2-4c.054 1.583.093 3.166.125 4.75l.07 2.672c-.204 2.692-.83 4.277-2.195 6.578l-.621-2.52-.817-3.293-.808-3.269A89.613 89.613 0 00360 109z" fill="#111013"/><path d="M531 225l7 1-4 2 1 4-2.438.375L530 233l-1 2-5-1c3.228-2.152 4.284-2.2 8-2l-1-7z" fill="#363A3D"/><path d="M433 200h2a158.814 158.814 0 015 6l-3 2-6-3 2-5z" fill="#CAE3E3"/><path d="M490 194h7c1.374 3.818.68 7.073 0 11l-2-4h-2l1-4-4-3z" fill="#6D9892"/><path d="M506 135l.813 1.875c1.143 2.425 1.143 2.425 4.187 4.125.75 2 .75 2 1 4l-1 2h2l-1 3c-4.195-5.163-5.65-8.354-6-15z" fill="#352725"/><path d="M358 132l3 1v7h-4c-.042-2.333-.04-4.667 0-7l1-1z" fill="#1D1611"/><path d="M521 135c4.268 0 6.416.61 10 3h-3v2l-8-1 1-4z" fill="#6B4F48"/><path d="M572 124h1c.471 4.808.705 7.954-2.063 12.063-3.581 2.362-5.727 2.35-9.937 1.937v-1h6l2-6 2 1 1-8z" fill="#372B29"/><path d="M310 106h12c-4.5 4.5-4.5 4.5-8 5l-1-3-3-2z" fill="#181214"/><path d="M389 203v2h2v5l-1.75-2.063c-2.016-2.176-2.016-2.176-4.313-1.875-2.12 1.026-3.399 2.17-4.937 3.938l-2-1c3.577-3.875 5.69-6 11-6z" fill="#545255"/><path d="M546 164c1.938.313 1.938.313 4 1 1 3 1 3 .063 5.188L549 172l-1-3-3 2h-3l-1-3h6l-1-4z" fill="#644B2B"/><path d="M441 206h2c.392 2.664.406 4.392-1.113 6.668-1.25 1.483-2.566 2.912-3.887 4.332-1-2-1-2-.188-4.938C439 209 439 209 441 206z" fill="#839CA2"/><path d="M486 194c3.375.313 3.375.313 7 1l2 3h-2l-1 2v-4l-3 1-2-1-1 8h-1c-.125-7.75-.125-7.75 1-10z" fill="#94CAC1"/><path d="M324 169l13 3v2c-5.693.455-8.543-.412-13-4v-1z" fill="#21150F"/><path d="M384 152c2.625-.188 2.625-.188 5 0l-2 6h-4l-1-3 2-3z" fill="#D8F4F7"/><path d="M479 153l3 1c2.638-.394 2.638-.394 5-1l1 2-3 1 1 2h-8l1-5z" fill="#7AC1B4"/><path d="M511 255c1.23 6.4 1.23 6.4.063 9.438L510 266l-.25-2.813c-.453-3.272-.453-3.272-2.813-5.062L505 257c3-2 3-2 6-2z" fill="#89A7B4"/><path d="M412 252h3v8l-5 1 2-9z" fill="#77858A"/><path d="M502 201c3.044 2.03 3.748 2.726 5 6v4h-4l-1-10z" fill="#96ACAB"/><path d="M517 198l1 3c-2.46 3.878-4.617 5.66-9 7l2 3-4-1-1-4 3.25-.625c4.456-1.634 5.528-3.286 7.75-7.375z" fill="#4F6C69"/><path d="M336 185l3 1c-1 2-1 2-2 3-2.353.073-4.708.084-7.063.063l-3.91-.028L323 189l-1-3 1.672.496c2.594.562 4.926.601 7.578.566l2.703-.027L336 187v-2z" fill="#32C393"/><path d="M537 109c6.4-.492 6.4-.492 9.438 2l1.562 2-11-1v-3z" fill="#2C1A15"/><path d="M517 109l2 1v2h-11v-2c2.986-1.493 5.709-1.118 9-1z" fill="#33201B"/><path d="M396 197c1.675.286 3.344.618 5 1l-1 4h-5c0-4 0-4 1-5z" fill="#7A524B"/><path d="M303 86c0 3 0 3-2.313 5.625C298 94 298 94 295 95v2l-4 2 1-3h2l.773-1.797c1.345-2.415 2.72-3.715 4.852-5.453l1.914-1.578L303 86z" fill="#020C14"/><path d="M475 184l2 3-2 3v2l-4-2v-5l4-1z" fill="#90BCB4"/><path d="M341 178c2.352.599 4.686 1.27 7 2l1 2-4-1 1 7c-2.645-3.125-3.844-6.088-5-10z" fill="#828489"/><path d="M359 156h3c-1.208 4.43-2.517 6.981-6 10v-6l2-1 2 1-1-4z" fill="#41322C"/><path d="M500 152l3 2c-.813 1.938-.813 1.938-2 4l-3 1-2-2c1.75-3.875 1.75-3.875 4-5z" fill="#CFECE8"/><path d="M309 146v3c-2.906 1.257-4.796 2-8 2v-4c2.892-.826 4.887-1 8-1z" fill="#AF9691"/><path d="M579 71c2.53.337 3.682.606 5.313 2.625.96 3.321.332 6.021-.313 9.375h-3l.688-3.75c.409-3.119.495-3.931-1.125-6.75L579 71z" fill="#031018"/><path d="M452 200h10l-2 1v4h-3v-4l-1 2-4-1v-2z" fill="#A6D6CE"/><path d="M531 170l12 2v1l-2.117.367-2.758.508-2.742.492c-2.548.463-2.548.463-4.383 2.633v-7z" fill="#E0D251"/><path d="M289 172l2 1-2 5h-4l-1-4h5v-2z" fill="#171C22"/><path d="M322 168l3 1 1 3-2.25.438c-2.27.464-4.508.98-6.75 1.562l1-4 5 1-1-3z" fill="#68453D"/><path d="M475 111l4 1-1 5-4-1 1-5z" fill="#D6CE55"/><path d="M516 198l1 2c-2.234 3.351-3.262 4.816-7.25 5.813L507 206v-2c5.75-3 5.75-3 8-3l1-3z" fill="#97CAC1"/><path d="M509 178c1 2 1 2 1 5 1.438 1.688 1.438 1.688 3 3l-6.055-.879c-2.026-.29-2.026-.29-3.945.879.313-1.938.313-1.938 1-4l3-1 2-3z" fill="#3A5758"/><path d="M545 155l-8 5-1-2-3-2c1.623-.362 3.249-.715 4.875-1.063l2.742-.597C543 154 543 154 545 155z" fill="#2F1E15"/><path d="M470 152l2 1c.625 3.063.625 3.063 1 6h-5l-1-3 1-2h2v-2z" fill="#7FC7B9"/><path d="M476 118l2 1v8l-4-1 2-8z" fill="#09171E"/><path d="M545 234c2 2 2 2 2.195 3.945L547 244h-2l-1 2-2-2h2v-4h2l-1-6z" fill="#503E3D"/><path d="M482 232c3.092 2.53 3.91 5.225 5 9h-3c-2.29-3.435-2.178-4.985-2-9z" fill="#98CDC9"/><path d="M317 183l4 1v11c-1.903-2.855-2.462-4.42-3.125-7.688l-.508-2.449L317 183z" fill="#348168"/><path d="M299 138c2.886.398 3.822.79 5.75 3.063L306 143l-1 2h-5l.625-2.375L301 140l-2-2z" fill="#4F3028"/><path d="M286 133c2.964 2.808 5.445 5.183 7 9-3.653-1.25-4.78-1.671-7-5v-4z" fill="#B86BAA"/><path d="M421 116l4 2-1 4c-1.938-.313-1.938-.313-4-1l-1-3 2-2z" fill="#D4F6FB"/><path d="M528 54l-1 2-1-1c-3.607-.501-4.785-.153-7.813 2L516 59c.872-2.76 1.484-4.576 3.75-6.438 3.197-.799 5.262.216 8.25 1.438z" fill="#01111B"/><path d="M514 205l4 1v4h-5l-1-2 2-3z" fill="#D7F0F0"/><path d="M282 169c1 3 1 3-.125 5.688C280 177 280 177 277.437 177.438 275 177 275 177 273 175l1-3 2 3 3 1-1-3 4-4z" fill="#030A15"/><path d="M535 138c-1.098 2.993-1.677 3.846-4.625 5.25L528 144l1-3-1-2c2.49-.687 4.379-1 7-1z" fill="#DCD8D4"/><path d="M509 128l1 2 2 1c-2.052 2.248-3.007 3.002-6 4v-6l3-1z" fill="#5D3C34"/><path d="M486 253l2 2c-.023 2.602-.023 2.602-.375 5.625l-.336 3.04L487 266h-1l-1-10-5 1v-2l6-2z" fill="#2E454B"/><path d="M427 217l4 1 1 4-6-1 1-4z" fill="#8ABBB5"/><path d="M415 200h4c-1.312 3.937-2.92 6.227-6 9l2-9z" fill="#231A1B"/><path d="M498 180l5 2v3l-6 2 1-7z" fill="#B8E0DB"/><path d="M329 81c5.38.34 9.533.686 14 4-3.22 1.61-5.682.068-9-1a151.794 151.794 0 01-5-2v-1z" fill="#03101A"/><path d="M412 238c1.858 3.135 2.201 5.375 2 9l-4-1c.523-2.763 1.109-5.326 2-8z" fill="#C5E0E1"/><path d="M541 223h2l1 5-12-2v-1h9v-2z" fill="#BFB75E"/><path d="M528 162h2c1.883 6.093 2.075 10.725 1 17h-1l-2-17z" fill="#B2AB71"/><path d="M448 145v6l-1-2h-2v9h-1c-.081-1.603-.14-3.208-.188-4.813l-.105-2.707c.293-2.48.293-2.48 1.742-4.304C447 145 447 145 448 145z" fill="#6D9E9A"/><path d="M292 131h2l-1 9-4-4h2l1-5z" fill="#382A3A"/><path d="M386 126h2l-1 10h-1a206.67 206.67 0 01-1.125-3.875l-.633-2.18L384 128l2-2z" fill="#D6F3F8"/><path d="M405 119l2 3c-2.622 2.154-4.644 3.4-8 4 1.23-3.688 2.939-4.724 6-7z" fill="#DAF8FB"/><path d="M358 96c-.386 2.798-.801 3.82-2.938 5.75C353 103 353 103 351 103c1.15-3.452 2.984-7 7-7z" fill="#32353A"/><path d="M397 211h10c-2.9 1.934-3.897 2.301-7.188 2.625L396 214l1-3z" fill="#3B2A29"/><path d="M410 203c1.746 2.62 2.387 4.038 3 7l-6 1 3-1-.563-2.375C409 205 409 205 410 203z" fill="#4E3836"/><path d="M508 135l3 1v2h2l-1 3-4-1v-5z" fill="#7B5045"/><path d="M491 245a56.54 56.54 0 017 4v2c-2.375-.188-2.375-.188-5-1-1.313-2.563-1.313-2.563-2-5z" fill="#4C92C8"/><path d="M522 242l-1 4-1-2c-2.356-.468-2.356-.468-5.063-.625l-2.785-.227L510 243v-1c8.571-1.286 8.571-1.286 12 0z" fill="#4C98C8"/><path d="M424 215l1 2 2 1-1 2c-2.314.73-4.648 1.401-7 2 1.112-3.335 2.474-4.637 5-7z" fill="#2A3C46"/><path d="M338 176l3 1 1 5-3 1-1-7z" fill="#E8EDEA"/><path d="M362 132h1v11l-5-1 1.438-1.063c2.24-2.779 2.233-5.451 2.562-8.937z" fill="#6E4F4B"/><path d="M298 134c2.938.813 2.938.813 6 2l1 3a84.76 84.76 0 01-7-2v-3z" fill="#794C47"/><path d="M571 124l1 6-4-1-1-4c2-1 2-1 4-1z" fill="#775247"/><path d="M574 120l2 10h-3l-2-9c2-1 2-1 3-1z" fill="#181414"/><path d="M290 99l3 3-1 2-3 1-2 2c.75-5.75.75-5.75 3-8z" fill="#050E13"/><path d="M589 90h1c.25 6.625.25 6.625-2 10l-2-1c.557-3.344 1.352-6.033 3-9z" fill="#060B17"/><path d="M405 248h7v3c-3.113 0-5.108-.174-8-1l1-2z" fill="#8D989A"/><path d="M478 220h3v4h3l-1 3h-2c-3-4.385-3-4.385-3-7z" fill="#4E96CD"/><path d="M367 211l2 4 4-1-5 5-1-8z" fill="#535F65"/><path d="M499 205l1 4h2v2h-6l1-3h2v-3z" fill="#DAF3F1"/><path d="M488 179h6l-2 4-5-1 1-3z" fill="#BAE1DD"/><path d="M305 172l2 1-3 5-4-1 2-3 3 1v-3z" fill="#060D18"/><path d="M422 160c1.063 1.875 1.063 1.875 2 4l-1 2h-5l-1-3 4 1 1-4z" fill="#D4F9FC"/><path d="M408 146l5 2c-2 2-2 2-4.625 2.125L406 150l2-4z" fill="#C4E8F7"/><path d="M537 136l-1 5-2-1 1-2-7 1c3.268-2.179 5.08-3 9-3z" fill="#47312A"/><path d="M453 131l2 1c-1.313 2.938-1.313 2.938-3 6l-3 1c.6-3.356 1.846-5.378 4-8z" fill="#4E6A72"/><path d="M538 118h5v3l-5 1v-4z" fill="#251C16"/><path d="M311 112l3 1-4 9c-1.102-4.408-.587-5.892 1-10z" fill="#241616"/><path d="M281 258c2.648 2.578 4.944 4.916 7 8h-4c-3-5.75-3-5.75-3-8z" fill="#464850"/><path d="M403 253l2 2-3 6-4-2h4l-.063-2.438C402 254 402 254 403 253z" fill="#071B22"/><path d="M413 195l2 1v8c-1.5-1.188-1.5-1.188-3-3-.25-2.625-.25-2.625 0-5l1-1z" fill="#5E443D"/><path d="M551 186h5v2a105.022 105.022 0 01-5 4c-1.125-3.75-1.125-3.75 0-6z" fill="#9EA0A2"/><path d="M349 167h6c-2.174 2.5-3.73 3.436-7 4l1-4z" fill="#3B2C2B"/><path d="M398 156l4 4-5 1c0-4 0-4 1-5z" fill="#D9F0EF"/><path d="M351 154h3l-1 5h-5c1.313-2.5 1.313-2.5 3-5z" fill="#553E36"/><path d="M336 98v2h2v2c-5.75-1.75-5.75-1.75-8-4 3-1 3-1 6 0z" fill="#2B2E32"/><path d="M404 148v2h-5l-1-2c3-1 3-1 6 0z" fill="#BEE2EE"/><path d="M408 136l3 1v3l-3 1v-5z" fill="#A9CEE4"/></svg>